<?xml version="1.0" encoding="utf-8"?>
<!-- Generator: Adobe Illustrator 16.0.0, SVG Export Plug-In . SVG Version: 6.00 Build 0)  -->
<!DOCTYPE svg PUBLIC "-//W3C//DTD SVG 1.1//EN" "http://www.w3.org/Graphics/SVG/1.1/DTD/svg11.dtd">
<svg version="1.1" id="Layer_6_copy" xmlns="http://www.w3.org/2000/svg" xmlns:xlink="http://www.w3.org/1999/xlink" x="0px"
	 y="0px" width="216px" height="224px" viewBox="0 0 216 224" enable-background="new 0 0 216 224" xml:space="preserve">
<g>
	<path fill="#58595B" stroke="#58595B" stroke-width="0.5" stroke-miterlimit="10" d="M75.787,151.79
		c-0.638,0.639-1.467,0.942-2.295,0.942c-1.772,0-3.239-1.223-3.239-3.214c0-1.986,1.416-3.21,3.239-3.21
		c0.829,0,1.657,0.319,2.295,0.941l-0.408,0.396c-0.512-0.509-1.211-0.751-1.888-0.751c-1.429,0-2.626,0.929-2.626,2.624
		c0,1.698,1.197,2.626,2.626,2.626c0.677,0,1.364-0.267,1.875-0.776L75.787,151.79z"/>
	<path fill="#58595B" stroke="#58595B" stroke-width="0.5" stroke-miterlimit="10" d="M77.984,143.742v3.801
		c0.509-0.906,1.391-1.249,2.269-1.264c1.762,0,2.64,1.138,2.64,2.781v3.61h-0.61v-3.61c0-1.3-0.614-2.182-2.03-2.182
		c-1.325,0-2.243,1.021-2.243,2.336v3.456h-0.625v-8.929H77.984z"/>
	<path fill="#58595B" stroke="#58595B" stroke-width="0.5" stroke-miterlimit="10" d="M89.799,152.671v-1.136
		c-0.485,0.87-1.366,1.227-2.245,1.236c-1.686,0-2.845-1.033-2.845-2.78v-3.635h0.625v3.621c0,1.432,0.88,2.196,2.246,2.182
		c1.301-0.015,2.206-0.994,2.206-2.295v-3.508h0.623v6.314H89.799z"/>
	<path fill="#58595B" stroke="#58595B" stroke-width="0.5" stroke-miterlimit="10" d="M92.966,146.367l0.023,1.127
		c0.396-0.857,1.29-1.186,2.093-1.186c0.471-0.015,0.933,0.112,1.352,0.366l-0.28,0.512c-0.333-0.204-0.701-0.292-1.071-0.292
		c-1.173,0.01-2.079,0.954-2.079,2.101v3.676h-0.626v-6.304H92.966z"/>
	<path fill="#58595B" stroke="#58595B" stroke-width="0.5" stroke-miterlimit="10" d="M102.865,151.79
		c-0.64,0.639-1.465,0.942-2.298,0.942c-1.772,0-3.237-1.223-3.237-3.214c0-1.986,1.416-3.21,3.237-3.21
		c0.833,0,1.658,0.319,2.298,0.941l-0.408,0.396c-0.511-0.509-1.212-0.751-1.89-0.751c-1.426,0-2.625,0.929-2.625,2.624
		c0,1.698,1.199,2.626,2.625,2.626c0.678,0,1.367-0.267,1.876-0.776L102.865,151.79z"/>
	<path fill="#58595B" stroke="#58595B" stroke-width="0.5" stroke-miterlimit="10" d="M105.064,143.742v3.801
		c0.51-0.906,1.387-1.249,2.266-1.264c1.762,0,2.643,1.138,2.643,2.781v3.61h-0.613v-3.61c0-1.3-0.611-2.182-2.029-2.182
		c-1.324,0-2.243,1.021-2.243,2.336v3.456h-0.623v-8.929H105.064z"/>
	<path fill="#58595B" stroke="#58595B" stroke-width="0.5" stroke-miterlimit="10" d="M114.398,149.533
		c0-2.001,1.429-3.279,3.205-3.279c1.769,0,3.198,1.278,3.198,3.279c0,2.002-1.43,3.229-3.198,3.229
		C115.827,152.762,114.398,151.535,114.398,149.533z M120.188,149.533c0-1.633-1.159-2.691-2.584-2.691
		c-1.431,0-2.593,1.059-2.593,2.691c0,1.632,1.162,2.611,2.593,2.611C119.028,152.145,120.188,151.165,120.188,149.533z"/>
	<path fill="#58595B" stroke="#58595B" stroke-width="0.5" stroke-miterlimit="10" d="M123.218,152.671v-5.702h-1.289v-0.548h1.289
		v-0.561c0-1.251,0.495-2.155,1.885-2.155c0.473,0,0.893,0.167,1.252,0.434l-0.307,0.46c-0.345-0.207-0.587-0.32-0.97-0.32
		c-0.791,0-1.249,0.485-1.249,1.582v0.561h2.076v0.548h-2.076v5.702H123.218z"/>
	<path fill="#58595B" stroke="#58595B" stroke-width="0.5" stroke-miterlimit="10" d="M131.901,144.469v1.898h2.143v0.527h-2.143
		v3.837c0,0.854,0.177,1.454,1.16,1.454c0.306,0,0.651-0.102,0.971-0.255l0.215,0.509c-0.395,0.192-0.79,0.322-1.186,0.322
		c-1.338,0-1.771-0.791-1.771-2.03v-3.837h-1.341v-0.527h1.341v-1.834L131.901,144.469z"/>
	<path fill="#58595B" stroke="#58595B" stroke-width="0.5" stroke-miterlimit="10" d="M136.406,143.742v3.801
		c0.511-0.906,1.391-1.249,2.271-1.264c1.762,0,2.64,1.138,2.64,2.781v3.61h-0.611v-3.61c0-1.3-0.612-2.182-2.028-2.182
		c-1.325,0-2.245,1.021-2.245,2.336v3.456h-0.624v-8.929H136.406z"/>
	<path fill="#58595B" stroke="#58595B" stroke-width="0.5" stroke-miterlimit="10" d="M142.916,149.519
		c0-1.888,1.429-3.249,3.2-3.249c1.772,0,3.354,1.083,3.112,3.543h-5.674c0.125,1.479,1.261,2.332,2.562,2.332
		c0.828,0,1.798-0.329,2.27-0.955l0.447,0.36c-0.612,0.802-1.709,1.212-2.717,1.212
		C144.345,152.762,142.916,151.522,142.916,149.519z M148.668,149.265c-0.014-1.554-1.035-2.423-2.552-2.423
		c-1.301,0-2.424,0.879-2.562,2.423H148.668z"/>
</g>
<g>
	<path d="M48.995,168.271c0,2.256-1.379,4.012-3.573,4.7c2.758,0.753,4.325,2.978,4.325,5.518c0,4.514-4.2,5.735-7.962,5.735
		c-3.196,0-5.798,0-8.996,0v-21.941c3.167,0,5.799,0,8.996,0C45.484,162.282,48.995,164.101,48.995,168.271z M34.483,172.219h7.522
		c2.633,0,5.391-0.815,5.391-3.948c0-3.197-2.883-4.545-5.611-4.545h-7.302V172.219z M34.483,182.594h7.302
		c2.759,0,6.301-0.657,6.301-4.137c-0.032-3.417-3.135-4.641-6.082-4.641c-2.633,0-4.889,0-7.522,0V182.594z"/>
	<path d="M57.65,172.407h12.852v1.536H57.65v8.65h13.854v1.63H55.989v-21.941h15.139v1.599H57.65V172.407z"/>
	<path d="M80.063,162.282v20.343h12.35v1.599H78.37v-21.941H80.063z"/>
	<path d="M117.399,173.284c-0.03,5.768-3.697,11.316-11.063,11.316s-11.064-5.579-11.064-11.379c0-5.893,3.667-11.283,11.064-11.283
		S117.432,167.36,117.399,173.284z M96.932,173.253c0.032,4.953,3.166,9.78,9.404,9.78c6.269,0,9.435-4.827,9.435-9.78
		c0-5.078-3.135-9.747-9.435-9.747S96.9,168.082,96.932,173.253z"/>
	<path d="M139.881,162.282l-9.026,22.003h-1.818l-9.026-22.003h1.817l8.118,20.061l8.118-20.061H139.881z"/>
	<path d="M147.593,172.407h12.853v1.536h-12.853v8.65h13.854v1.63h-15.515v-21.941h15.139v1.599h-13.479V172.407z"/>
	<path d="M186.712,173.002c0.126,5.58-3.447,11.222-11.128,11.222c-2.476,0-4.952,0-7.428,0v-21.941c2.476,0,4.952,0,7.428,0
		C183.014,162.282,186.587,167.611,186.712,173.002z M169.849,163.881v18.713h5.735c6.521,0,9.529-4.89,9.436-9.592
		c-0.095-4.576-3.103-9.121-9.436-9.121H169.849z"/>
</g>
<g>
	<polygon fill="none" points="120.487,47.056 121.258,48.887 121.587,48.887 121.569,47.422 120.482,46.678 	"/>
	<polygon fill="none" points="117.595,50.704 117.595,51.083 119.058,51.451 119.442,51.45 119.439,51.068 117.973,50.7 	"/>
	<polygon fill="none" points="119.387,45.223 119.392,45.606 120.157,46.354 120.859,46.347 119.772,45.223 	"/>
	<path fill="none" d="M120.148,44.894c-0.376-1.225-0.866-1.833-1.476-1.828l0.315-0.383v-0.324l-1.467-0.742l1.484,3.288
		L120.148,44.894z"/>
	<polygon fill="none" points="129.363,60.841 129.363,60.461 128.979,60.087 128.278,60.095 128.282,60.468 	"/>
	<path fill="none" d="M134.06,59.721l-1.078,0.333l0.008,0.379c0.644-0.004,1.37,0.476,2.175,1.441l-0.003-0.375l1.141,0.37
		l0.003,0.378l-1.465,0.01l0.006,0.327l2.901,3.98l1.86,2.208l-2.972-5.119l0.379-0.004l1.851,0.744l0.325-0.004v-0.375
		c-0.729,0.001-1.089-0.229-1.089-0.698l1.071-1.091l-5.104-2.177L134.06,59.721z"/>
	<path fill="none" d="M138.057,58.229l-0.379,0.001l-0.327-0.375h-0.379v0.382c0.009,0.467,0.621,0.7,1.848,0.688
		c0.009,0.723,0.503,1.081,1.471,1.073c0.01,1.477,0.258,2.211,0.722,2.208l0.379-0.002v-0.377l-0.757,0.006l-0.008-0.378
		l0.748-1.468l-0.381,0.004l-0.376,0.38c-0.006-0.716-0.365-1.077-1.093-1.072l-1.48-2.913l-1.086,0.008l0.004,0.382L138.057,58.229
		z"/>
	<path fill="none" d="M132.248,56.051l-0.375,0.386v0.375c0.483,1.442,0.974,2.163,1.479,2.157V58.59l-0.767-1.076l-0.009-1.079
		c0.722-0.009,1.086,0.478,1.093,1.45l1.841-0.391c-0.005-0.435-1.471-1.271-4.404-2.514l-0.325,0.004v0.382
		C130.786,55.833,131.275,56.063,132.248,56.051z"/>
	<path fill="none" d="M132,72.454c0-0.433-0.625-0.786-1.844-1.066v0.323l1.085,0.747L132,72.454z"/>
	<path fill="none" d="M110.296,44.971c0.717-0.004,1.084,0.355,1.09,1.075l0.385,0.375l0.703-0.008l-0.017-1.132l-0.704-0.697
		l-1.457,0.006V44.971z"/>
	<polygon fill="none" points="112.216,55.513 112.928,56.209 113.301,56.202 113.626,55.881 114.008,55.873 114.001,54.738 	"/>
	<polygon fill="none" points="109.612,54.07 108.203,54.459 108.717,54.924 110.147,55.376 110.751,54.764 	"/>
	<polygon fill="none" points="109.254,50.445 109.245,49.689 108.167,49.698 108.878,50.447 	"/>
	<path fill="none" d="M98.114,72.241h17.013l0.091-0.032l1.47,0.367l0.373-0.38l0.375-0.002l0.329,0.377l0.38-0.004l2.215-0.396
		l0.706-0.01l2.18,1.448l0.375-0.004v-0.379c-0.727,0.005-1.089-0.35-1.094-1.075c3.857-0.03,6.023-2.353,6.492-6.979
		c-0.039-5.083-3.094-7.601-9.151-7.553l-0.54,0.025c-0.013-1.191-2.229-1.013-5.319-1.77c0,0.469,0.364,0.703,1.084,0.695v0.378
		l-4.944-1.57l-0.151,0.152l-1.138-0.476l1.836,1.669l-4.91-0.668l6.498,1.223l-1.289,0.384l-12.654,0.125l-0.006,0.034
		l-0.268,0.022v-0.054l-0.067,0.001l0.026,3.599l-0.035-0.016v2.329l0.06,0.14l-0.06,0.354v3.015l0.081-0.197L98.114,72.241z"/>
	<path fill="none" d="M111.527,38.126l-0.004-0.335c-0.002-0.636-0.508-1.003-1.519-1.109l-1.118,0.345l0.003,0.391L111.527,38.126z
		"/>
	<polygon fill="none" points="111.408,48.968 111.413,49.293 113.257,49.657 113.577,49.655 113.575,49.275 111.789,48.963 	"/>
	<polygon fill="none" points="113.257,50.411 112.182,50.747 112.182,51.127 113.59,51.494 113.59,51.115 113.262,50.737 	"/>
	<polygon fill="none" points="112.154,47.501 112.095,46.687 109.87,46.381 109.942,48.221 111.026,48.209 111.026,48.593 
		109.562,48.603 109.566,48.982 111.026,48.969 111.406,48.593 111.403,48.208 111.013,47.128 111.394,47.506 	"/>
	<polygon fill="none" points="140.875,45.052 141.253,45.051 141.253,44.727 140.86,43.646 140.489,43.649 140.493,43.974 	"/>
	<polygon fill="none" points="135.326,82.279 134.998,82.283 134.897,82.35 135.405,82.35 	"/>
	<polygon fill="none" points="137.884,36.799 138.273,36.454 138.273,36.065 137.15,36.073 	"/>
	<path fill="none" d="M143.004,81.46l-3.728-5.813l3.289-1.813c0.368,0.972,0.731,1.453,1.095,1.451
		c-0.628-1.544-1.25-2.391-1.859-2.53v0.324l0.381,0.379l-1.781,0.391l-0.77-1.077l0.382-0.381l-1.852-1.07l0.003,0.708l1.105,2.532
		l-0.681,2.228l1.096,2.154l-1.081,0.007c0.006,1.154-0.834,2.01-2.527,2.563l-0.281,0.835h2.964l0.246-0.099
		c0.287,0.031,0.557,0.062,0.815,0.099h3.245l0.261-0.89L143.004,81.46z M140.788,81.857l-0.008-1.462l0.764,0.7L140.788,81.857z"/>
	<path fill="none" d="M140.582,55.989l0.4,2.54l0.376-0.326l0.328-0.008l2.629,4.313l0.323-0.004l-0.004-0.324l-0.726-2.915
		l0.385-0.001l0.707,0.693l-0.374,0.378l0.755-0.002c0.004,0.722,0.241,1.078,0.712,1.078l0.374-0.383v-0.326l0.381,0.32h0.705
		l0.366-1.414c0.976,0.207,1.467,0.673,1.472,1.396l0.699-0.708l-0.383-0.377l0.383-0.004l-0.389-0.318l-0.006-0.761l0.761-0.004
		l-0.015-1.839l-0.375,0.38l-0.38,0.004l-0.325-0.377l-0.007-0.703l0.695-1.088l-1.464-0.365v0.377l0.386,0.375l-0.753,1.087
		l0.778,2.161l-0.379,0.005c-0.472,0.003-0.707-0.357-0.714-1.081l-0.381-0.376l-0.382,0.004l-0.318,0.384l-0.381,0.003v-0.379
		l0.376-0.38l-0.007-0.706l-0.385,0.006l0.011,0.7l-0.378,0.001l-1.088-0.692l0.004,0.705h-0.38l-0.007-0.702l-0.324,0.382
		l-0.374,0.001l0.381,0.322l0.01,0.757l-0.382-0.378l-0.38,0.387l-0.708,0.004l0.328-0.383l-0.007-0.704l-1.078,0.711
		c-0.465,0.006-0.702-0.354-0.71-1.075l-0.382-0.378L140.582,55.989z"/>
	<path fill="none" d="M132.774,81.166l-0.695,0.762v0.422h1.605C133.427,81.561,133.124,81.162,132.774,81.166z"/>
	<polygon fill="none" points="148.571,53.003 148.184,51.923 147.861,51.924 147.87,53.765 	"/>
	<polygon fill="none" points="146.423,55.239 146.416,54.483 146.032,54.159 145.659,54.159 146.046,55.246 	"/>
	<polygon fill="none" points="115.226,79.84 115.226,80.248 115.285,80.216 115.28,79.84 	"/>
	<polygon fill="none" points="147.873,54.143 147.493,54.149 146.797,54.856 147.884,54.848 	"/>
	<path fill="none" d="M120.051,80.938l-0.38,0.003l-0.711-1.128c-0.757,0.003-1.137,0.385-1.128,1.144l-0.329-0.376l-0.757,0.006
		l0.001,1.083l3.685-0.408l-0.002-0.704L120.051,80.938z"/>
	<path d="M138.759,82.35h1.062c-0.259-0.036-0.528-0.067-0.815-0.099L138.759,82.35z"/>
	<path fill="none" d="M111.733,37.91l-0.004-0.335c-0.005-0.636-0.508-1.001-1.519-1.107l-1.117,0.343l0.002,0.393L111.733,37.91z"
		/>
	<path fill="none" d="M150.239,91.18l-0.006-0.322c-0.478-1.116-0.971-1.726-1.473-1.832l1.096,2.159L150.239,91.18z"/>
	<polygon fill="none" points="109.079,50.214 109.454,50.212 109.441,49.456 108.368,49.468 	"/>
	<polygon fill="none" points="142.962,88.371 143.672,89.448 143.691,91.229 145.156,91.979 145.538,91.976 145.528,90.892 
		144.445,90.903 144.432,89.06 143.663,88.364 	"/>
	<polygon fill="none" points="111.607,48.739 111.613,49.062 113.453,49.425 113.777,49.424 113.774,49.045 111.988,48.735 	"/>
	<path fill="none" d="M110.493,44.75c0.72-0.004,1.087,0.354,1.09,1.074l0.388,0.374l0.702-0.008l-0.015-1.13l-0.707-0.698
		l-1.458,0.008V44.75z"/>
	<polygon fill="none" points="113.457,50.178 112.378,50.514 112.378,50.89 113.79,51.258 113.788,50.879 113.461,50.503 	"/>
	<polygon fill="none" points="112.354,47.276 112.292,46.462 110.07,46.158 110.144,47.995 111.228,47.984 111.228,48.362 
		109.763,48.373 109.767,48.751 111.228,48.742 111.604,48.362 111.602,47.982 111.213,46.904 111.592,47.282 	"/>
	<polygon fill="none" points="109.811,53.828 108.402,54.216 108.915,54.68 110.344,55.133 110.952,54.522 	"/>
	<polygon fill="none" points="138.091,36.584 138.478,36.241 138.478,35.853 137.358,35.861 	"/>
	<polygon fill="none" points="151.761,99.177 152.142,99.553 152.468,99.548 152.136,98.47 151.761,98.474 	"/>
	<path fill="none" d="M98.314,71.956h17.014l0.089-0.033l1.466,0.365l0.376-0.379l0.379-0.003l0.329,0.376l0.378-0.004l2.215-0.393
		l0.702-0.01l2.183,1.444l0.375-0.005v-0.378c-0.728,0.007-1.087-0.35-1.095-1.071c3.859-0.031,6.024-2.347,6.495-6.965
		c-0.04-5.069-3.096-7.581-9.154-7.535l-0.539,0.028c-0.012-1.19-2.231-1.01-5.32-1.765c0.002,0.468,0.365,0.702,1.084,0.691v0.378
		l-4.946-1.564l-0.146,0.149l-1.139-0.474l1.837,1.666l-4.912-0.67l6.499,1.221l-1.291,0.384l-12.534,0.123l-0.081,0.476
		l-0.237,0.024l-0.013-0.446l-0.06,0.005v-0.058l-0.07,0.002l0.026,3.591l-0.034-0.017v2.325l0.059,0.139l-0.059,0.354v3.004
		l0.08-0.194L98.314,71.956z"/>
	<path fill="none" d="M154.541,110.081l0.005,0.338c0,0.522,0.38,0.779,1.121,0.771l-0.344-1.114L154.541,110.081z"/>
	<polygon fill="none" points="153.607,99.92 153.935,99.919 153.93,99.158 151.738,95.931 151.36,95.933 151.363,96.313 	"/>
	<path fill="none" d="M120.347,44.674c-0.376-1.221-0.864-1.828-1.477-1.824l0.318-0.382v-0.325l-1.469-0.74l1.486,3.281
		L120.347,44.674z"/>
	<polygon fill="none" points="112.415,55.267 113.129,55.961 113.498,55.959 113.823,55.632 114.206,55.628 114.2,54.495 	"/>
	<path fill="none" d="M134.26,59.466l-1.08,0.332l0.007,0.377c0.647-0.004,1.373,0.475,2.179,1.438l-0.006-0.376l1.144,0.368v0.38
		l-1.464,0.01l0.004,0.326l2.903,3.972l1.857,2.201l-2.972-5.106l0.381-0.004l1.853,0.742l0.32-0.004v-0.376
		c-0.723,0.004-1.086-0.228-1.086-0.694l1.073-1.091l-5.107-2.17L134.26,59.466z"/>
	<polygon fill="none" points="146.623,54.994 146.615,54.24 146.23,53.917 145.856,53.918 146.246,55 	"/>
	<polygon fill="none" points="148.074,53.902 147.693,53.908 146.997,54.614 148.083,54.604 	"/>
	<polygon fill="none" points="148.769,52.764 148.386,51.687 148.062,51.688 148.068,53.523 	"/>
	<path fill="none" d="M140.78,55.742l0.403,2.534l0.375-0.324l0.325-0.004l2.632,4.295l0.321-0.002l-0.004-0.323l-0.726-2.908h0.387
		l0.704,0.69l-0.375,0.379l0.759-0.002c0.003,0.72,0.241,1.077,0.711,1.077l0.375-0.387v-0.322l0.382,0.322l0.701-0.004l0.368-1.405
		c0.976,0.206,1.465,0.672,1.47,1.389l0.701-0.705l-0.385-0.377l0.383-0.004l-0.384-0.317l-0.011-0.758l0.764-0.005l-0.015-1.835
		l-0.375,0.381l-0.382,0.004l-0.325-0.377l-0.006-0.703l0.695-1.084l-1.465-0.366v0.376l0.386,0.376l-0.751,1.084l0.779,2.156
		l-0.382,0.004c-0.471,0.002-0.706-0.356-0.714-1.078l-0.38-0.374l-0.381,0.004l-0.317,0.382l-0.381,0.002v-0.376l0.373-0.379
		l-0.009-0.702l-0.381,0.002l0.008,0.7l-0.377,0l-1.088-0.69l0.006,0.703h-0.381l-0.011-0.7l-0.319,0.382l-0.374,0.001l0.38,0.32
		l0.007,0.756l-0.38-0.376l-0.38,0.384l-0.707,0.006l0.328-0.382l-0.006-0.704l-1.079,0.712c-0.468,0.002-0.701-0.355-0.711-1.074
		l-0.382-0.376L140.78,55.742z"/>
	<polygon fill="none" points="137.562,96.744 137.562,97.124 137.898,98.203 138.275,98.2 138.27,97.119 137.887,96.744 	"/>
	<path fill="none" d="M140.461,93.855l1.414,1.394h0.385l-0.006-0.326C142.251,94.35,141.658,93.989,140.461,93.855z"/>
	<path fill="none" d="M139.83,72.486l0.379-0.38l-1.848-1.068l0.003,0.706l1.104,2.526l-0.682,2.224l1.096,2.148l-1.08,0.006
		c0.007,1.153-0.835,2.007-2.526,2.559l-0.281,0.831h-0.39l-0.081-0.066l-0.326,0l-0.101,0.065h-1.215
		c-0.258-0.784-0.562-1.184-0.907-1.181l-0.697,0.761v0.42h-0.298v0.196l0.378,0.373l0.009,0.378l-0.754,0.005v0.326l0.764,1.13
		l0.005,0.326L132,84.774l-0.382-0.322h-0.38c0.442,1.083,1.298,2.032,2.571,2.852l0.755-0.006l-1.091-1.4l1.073-1.142l0.711,1.13
		l-1.087,0.008c0.877,1.26,1.856,2.097,2.946,2.524l0.373-0.387l-0.003-0.379c-0.009-1.084-0.756-2.282-2.243-3.608l0.759-0.006
		l0.378,0.377l0.32-0.001c-0.002-0.759,0.242-1.14,0.749-1.144l-0.379-0.322v-0.38l1.583-0.62h1.068
		c1.985,0.256,3.168,0.573,3.517,0.952l-0.319-0.378l-0.008-0.381l0.056-0.193h0.323l0.233-0.799l-0.321,0.003l-3.729-5.802
		l3.29-1.808c0.369,0.967,0.732,1.452,1.093,1.448c-0.624-1.542-1.25-2.384-1.858-2.526v0.327l0.383,0.376l-1.783,0.391
		L139.83,72.486z"/>
	<polygon fill="none" points="117.793,50.471 117.793,50.848 119.254,51.216 119.643,51.212 119.639,50.835 118.172,50.467 	"/>
	<polygon fill="none" points="141.075,44.833 141.453,44.831 141.453,44.507 141.061,43.431 140.688,43.434 140.693,43.755 	"/>
	<polygon fill="none" points="120.687,46.831 121.458,48.658 121.783,48.656 121.769,47.198 120.681,46.454 	"/>
	<polygon fill="none" points="119.584,45.002 119.591,45.382 120.358,46.13 121.06,46.126 119.971,45.002 	"/>
	<polygon fill="none" points="129.563,60.584 129.563,60.203 129.18,59.83 128.478,59.84 128.483,60.212 	"/>
	<polygon fill="none" points="128.742,90.645 128.742,89.943 127.655,89.953 127.665,90.656 	"/>
	<path fill="none" d="M132.198,72.168c0-0.434-0.625-0.787-1.845-1.063v0.322l1.086,0.745L132.198,72.168z"/>
	<path fill="none" d="M138.258,57.976l-0.379,0.001l-0.331-0.375l-0.376,0.002v0.379c0.008,0.467,0.618,0.7,1.848,0.686
		c0.009,0.722,0.502,1.079,1.471,1.072c0.008,1.473,0.257,2.206,0.723,2.202h0.375v-0.378l-0.753,0.006l-0.013-0.377l0.752-1.463
		l-0.381,0.004l-0.375,0.379c-0.008-0.717-0.367-1.075-1.095-1.07l-1.479-2.903l-1.09,0.007l0.006,0.377L138.258,57.976z"/>
	<path fill="none" d="M132.448,55.802l-0.377,0.388v0.374c0.483,1.438,0.975,2.156,1.479,2.152v-0.38l-0.766-1.072l-0.011-1.077
		c0.723-0.008,1.089,0.475,1.095,1.446l1.84-0.39c-0.006-0.434-1.473-1.267-4.406-2.507l-0.322,0.003v0.382
		C130.987,55.587,131.473,55.814,132.448,55.802z"/>
	<path fill="none" d="M136.05,89.888l-0.014-1.462l-1.089-0.374C135.249,89.28,135.612,89.888,136.05,89.888z"/>
	<polygon fill="none" points="142.564,117.287 141.844,118.076 141.844,119.195 143.687,118.059 142.956,117.282 	"/>
	<path fill="none" d="M136.082,94.217c-0.397,0.003-0.889-0.841-1.484-2.535l0.703-0.004l0.012,0.756h0.378l-0.006-0.758
		l1.086,0.749l0.754-0.007v-0.38l-0.765-0.75l-0.319,0.377l-0.383,0.006l-4.027-2.894v-0.322l-1.083,0.007l-0.379,0.327
		l-0.376,0.004l2.235,2.202l0.013,1.088l0.323-0.006l-0.008-1.082l0.376-0.004c0.005,0.471,0.622,1.185,1.854,2.149l0.009,0.38
		c-0.903,0.006-1.641,0.499-2.207,1.478l0.767,1.077l-0.762,0.005l-2.561-2.52l-1.078,1.088l-0.702,0.004
		c-1.375-0.891-3.947-1.592-7.704-2.103l-0.716-1.836l-0.381,0.004l0.003,0.704l-0.375,0.002l0.375,0.378l0.013,0.377l-0.702,0.708
		l-3.838,0.033v0.024h-3.182l-7.92,0.064l-0.294-0.064h-2.261l-0.367,0.083l-2.923,0.028l0.092,10.93h-0.323l-0.013-1.082
		l-0.049,0.001v1.326l0.388,0.513l0.063,8.01l23.646-0.188c1.169,0.533,2.274,1.967,3.344,4.304l-0.384-0.32l-0.327,0.002
		l-0.371,0.326c-0.009-0.974-0.497-1.456-1.477-1.448l0.006,0.378l0.399,2.164l-0.382,0.382l-0.378,0.004l-1.462-0.371l-0.324,0.382
		l1.101,2.207l-0.759,0.006l0.385,0.322l0.005,0.381l-0.701,0.71l-0.385-0.325l0.02,1.087l0.374-0.007l1.39-1.473l1.144,0.37
		l0.01,1.084l-0.761,0.003l0.021,2.546l-1.086-0.697c0.15,1.188,0.881,1.779,2.178,1.771l0.38-0.003l-0.004-0.379
		c-0.725,0.005-1.09-0.224-1.09-0.698c0.538-0.001,1.152-0.493,1.828-1.47l0.323-0.005l-0.003-0.38l-0.328-0.32v-0.38l1.079-0.386
		l-1.104-2.914l1.402-0.015l1.148,0.75l0.322-0.002l-0.007-0.755c-0.976,0.008-1.464-0.589-1.477-1.774v-0.381
		c1.161,1.22,2.144,1.823,2.936,1.818l-0.327-0.375v-0.755c0.902-0.011,1.977,0.593,3.258,1.81l-0.01-1.084l-0.706-0.751
		l-0.378,0.007l0.373-0.329l-0.004-0.378l-0.384-0.376l0.681-2.552c-0.353,0.005-0.832,0.98-1.44,2.936l-0.32,0.001l-0.383-0.374
		v-0.325l0.698-0.765l-0.324-0.374l-0.005-0.328l-0.379,0.007l-0.011-1.14l1.073-1.414v0.323l-0.37,1.082h0.384l1.453-0.333
		l-0.392-1.841c1.217-0.406,1.827-1.131,1.819-2.181l-0.7,0.008l0.303-2.547l0.385,0.322l0.704-0.003l-0.006-1.085
		c-0.481-0.538-0.723-1.382-0.729-2.54l-1.084,0.013l-0.003-0.379l0.708-0.008l-0.332-0.32l-0.021-2.544l-0.753,0.002l-0.009-0.755
		l1.824-2.177l-0.38-0.377C134.333,96.864,135.301,95.879,136.082,94.217z"/>
	<path fill="none" d="M118.185,90.027c1.219-1.378,1.818-2.72,1.812-4.021l-1.082,0.012l-0.378,0.322l-0.376,0.004l-0.003-0.701
		l-1.086,0.386l0.006,0.702l0.378,0.378l0.011,0.323l-0.384,0.382l1.095,1.074l-0.373,0.005L118.185,90.027z"/>
	<polygon fill="none" points="142.684,100.386 143.389,101.085 143.772,101.083 143.053,100.382 	"/>
	<path fill="none" d="M154.372,106.845l-2.554-1.063c0.399,0.716,1.246,1.305,2.554,1.764V106.845z"/>
	<polygon fill="none" points="151.022,94.474 151.021,94.099 148.062,90.114 148.068,90.872 150.262,94.482 	"/>
	<polygon fill="none" points="152.476,100.309 152.146,100.314 150.303,99.568 149.598,99.576 152.165,102.098 	"/>
	<polygon fill="none" points="147.652,86.111 146.948,86.118 146.952,86.498 148.047,87.572 148.045,87.19 	"/>
	<polygon fill="none" points="144.531,101.456 144.531,101.833 144.856,102.157 145.612,102.148 145.612,101.824 	"/>
	<polygon fill="none" points="145.819,86.885 146.583,87.585 146.583,87.204 145.815,86.504 	"/>
	<polygon fill="none" points="98.492,115.005 98.5,116.181 99.23,116.173 99.227,115.782 	"/>
	<polygon fill="none" points="100.715,112.746 101.838,113.469 102.227,113.461 100.709,112.353 	"/>
	<path fill="none" d="M115.586,83.12c0.01,0.541,0.622,0.899,1.85,1.064l0.323-0.376l-0.003-0.381l-2.17-0.686V83.12z"/>
	<polygon fill="none" points="102.662,118.384 103.389,119.109 103.786,119.103 102.656,117.993 	"/>
	<path fill="none" d="M121.451,84.859l-1.466-0.316l-0.377,0.33c-0.009-0.72-0.245-1.081-0.711-1.08l-0.758,0.008v0.758l1.851,1.068
		l1.461-0.39V84.859z"/>
	<path fill="none" d="M120.629,80.248l-0.377,0.383l-0.381,0.004l-0.713-1.125c-0.757,0.004-1.137,0.382-1.127,1.14l-0.329-0.377
		l-0.758,0.008l0.003,1.079l3.686-0.406L120.629,80.248z"/>
	<polygon fill="none" points="115.426,79.942 115.483,79.911 115.479,79.534 115.426,79.534 	"/>
	<polygon fill="none" points="107.6,127.024 106.876,127.757 106.884,128.873 108.783,128.132 108.775,127.018 	"/>
	<polygon fill="none" points="104.562,118.761 104.575,119.882 105.305,119.875 104.9,118.761 	"/>
	<polygon fill="none" points="108.358,123.995 108.749,123.991 108.737,122.872 107.565,122.879 107.566,123.215 	"/>
	<polygon fill="none" points="114.287,117.174 115.071,116.383 114.279,115.663 	"/>
	<polygon fill="none" points="106.813,120.256 107.55,120.976 107.943,120.976 106.813,119.863 	"/>
	<polygon fill="none" points="105.355,126.256 105.355,126.649 105.746,126.642 106.464,125.857 106.464,125.519 106.068,125.524 	
		"/>
	<polygon fill="#FFFFFF" points="101.186,51.601 101.186,51.326 100.692,51.334 100.701,52.117 	"/>
	<polygon fill="#FFFFFF" points="107.893,44.85 108.376,43.554 107.882,43.005 107.432,43.834 107.684,44.857 	"/>
	<path fill="#FFFFFF" d="M98.712,44.423l0.445-1.848l-0.212,0.002c-0.4,0.002-0.628,0.355-0.695,1.065l0.219,0.781H98.712z"/>
	<polygon fill="#FFFFFF" points="103.649,49.562 104.041,47.012 104.285,47.012 104.292,48.074 104.537,48.071 105.15,47.149 
		104.285,46.739 104.038,46.741 103.338,47.023 103.584,46.746 103.579,46.196 103.091,46.198 103.492,48.71 	"/>
	<path fill="#FFFFFF" d="M101.543,43.34c-0.003-0.523,0.227-0.79,0.695-0.793l0.242-0.279l-0.004-0.511l-0.734,0.01l-0.454,0.514
		l0.008,1.06H101.543z"/>
	<polygon fill="#FFFFFF" points="105.029,38.028 105.253,38.835 105.509,38.835 105.752,37.777 105.5,37.779 105.244,38.024 	"/>
	<path fill="#FFFFFF" d="M101.336,32.277c-0.666,0.229-1.057,0.517-1.179,0.862l1.302-0.01L101.336,32.277z"/>
	<polygon fill="#FFFFFF" points="105.478,34.773 105.725,33.678 105.725,33.39 105.469,33.391 105.224,34.491 105.228,34.773 	"/>
	<polygon fill="#FFFFFF" points="98.576,58.008 98.657,57.532 98.536,57.532 98.531,57.566 98.326,57.586 98.339,58.032 	"/>
	<polygon fill="#FFFFFF" points="98.536,57.532 98.657,57.532 98.811,56.671 100.138,55.396 98.513,55.541 98.31,56.837 
		98.326,57.586 98.531,57.566 	"/>
	<polygon fill="none" points="148.074,53.902 147.693,53.908 146.997,54.614 148.083,54.604 	"/>
	<path fill="none" d="M132.198,72.168c0-0.434-0.625-0.787-1.845-1.063v0.322l1.086,0.745L132.198,72.168z"/>
	<polygon fill="none" points="120.687,46.831 121.458,48.658 121.783,48.656 121.769,47.198 120.681,46.454 	"/>
	<path fill="none" d="M120.347,44.674c-0.376-1.221-0.864-1.828-1.477-1.824l0.318-0.382v-0.325l-1.469-0.74l1.486,3.281
		L120.347,44.674z"/>
	<polygon fill="none" points="119.584,45.002 119.591,45.382 120.358,46.13 121.06,46.126 119.971,45.002 	"/>
	<polygon fill="none" points="117.793,50.471 117.793,50.848 119.254,51.216 119.643,51.212 119.639,50.835 118.172,50.467 	"/>
	<path fill="none" d="M132.448,55.802l-0.377,0.388v0.374c0.483,1.438,0.975,2.156,1.479,2.152v-0.38l-0.766-1.072l-0.011-1.077
		c0.723-0.008,1.089,0.475,1.095,1.446l1.84-0.39c-0.006-0.434-1.473-1.267-4.406-2.507l-0.322,0.003v0.382
		C130.987,55.587,131.473,55.814,132.448,55.802z"/>
	<path fill="none" d="M140.78,55.742l0.403,2.534l0.375-0.324l0.325-0.004l2.632,4.295l0.321-0.002l-0.004-0.323l-0.726-2.908h0.387
		l0.704,0.69l-0.375,0.379l0.759-0.002c0.003,0.692,0.228,1.04,0.662,1.066c0.145-0.229,0.284-0.447,0.424-0.667v-0.03l0.012,0.011
		c0.56-0.882,1.068-1.678,1.512-2.367c-0.05-0.158-0.085-0.339-0.088-0.572l-0.38-0.374l-0.381,0.004l-0.317,0.382l-0.381,0.002
		v-0.376l0.373-0.379l-0.009-0.702l-0.381,0.002l0.008,0.7l-0.377,0l-1.088-0.69l0.006,0.703h-0.381l-0.011-0.7l-0.319,0.382
		l-0.374,0.001l0.38,0.32l0.007,0.756l-0.38-0.376l-0.38,0.384l-0.707,0.006l0.328-0.382l-0.006-0.704l-1.079,0.712
		c-0.468,0.002-0.701-0.355-0.711-1.074l-0.382-0.376L140.78,55.742z"/>
	<path fill="none" d="M134.26,59.466l-1.08,0.332l0.007,0.377c0.647-0.004,1.373,0.475,2.179,1.438l-0.006-0.376l1.144,0.368v0.38
		l-1.464,0.01l0.004,0.326l2.903,3.972l1.857,2.201l-2.972-5.106l0.381-0.004l1.853,0.742l0.32-0.004v-0.376
		c-0.723,0.004-1.086-0.228-1.086-0.694l1.073-1.091l-5.107-2.17L134.26,59.466z"/>
	<polygon fill="none" points="146.623,54.994 146.615,54.24 146.23,53.917 145.856,53.918 146.246,55 	"/>
	<path fill="none" d="M138.258,57.976l-0.379,0.001l-0.331-0.375l-0.376,0.002v0.379c0.008,0.467,0.618,0.7,1.848,0.686
		c0.009,0.722,0.502,1.079,1.471,1.072c0.008,1.473,0.257,2.206,0.723,2.202h0.375v-0.378l-0.753,0.006l-0.013-0.377l0.752-1.463
		l-0.381,0.004l-0.375,0.379c-0.008-0.717-0.367-1.075-1.095-1.07l-1.479-2.903l-1.09,0.007l0.006,0.377L138.258,57.976z"/>
	<polygon fill="none" points="141.075,44.833 141.453,44.831 141.453,44.507 141.061,43.431 140.688,43.434 140.693,43.755 	"/>
	<polygon fill="none" points="129.563,60.584 129.563,60.203 129.18,59.83 128.478,59.84 128.483,60.212 	"/>
	<polygon fill="none" points="104.487,38.599 104.729,37.217 106.104,35.9 104.422,36.048 104.213,37.39 104.24,38.625 	"/>
	<polygon fill="none" points="105.478,34.773 105.725,33.678 105.725,33.39 105.469,33.391 105.224,34.491 105.228,34.773 	"/>
	<polygon fill="none" points="105.029,38.028 105.253,38.835 105.509,38.835 105.752,37.777 105.5,37.779 105.244,38.024 	"/>
	<path fill="none" d="M101.543,43.34c-0.003-0.523,0.227-0.79,0.695-0.793l0.242-0.279l-0.004-0.511l-0.734,0.01l-0.454,0.514
		l0.008,1.06H101.543z"/>
	<polygon fill="none" points="113.457,50.178 112.378,50.514 112.378,50.89 113.79,51.258 113.788,50.879 113.461,50.503 	"/>
	<polygon fill="none" points="103.649,49.562 104.041,47.012 104.285,47.012 104.292,48.074 104.537,48.071 105.15,47.149 
		104.285,46.739 104.038,46.741 103.338,47.023 103.584,46.746 103.579,46.196 103.091,46.198 103.492,48.71 	"/>
	<polygon fill="none" points="112.354,47.276 112.292,46.462 110.07,46.158 110.144,47.995 111.228,47.984 111.228,48.362 
		109.763,48.373 109.767,48.751 111.228,48.742 111.604,48.362 111.602,47.982 111.213,46.904 111.592,47.282 	"/>
	<polygon fill="none" points="111.607,48.739 111.613,49.062 113.453,49.425 113.777,49.424 113.774,49.045 111.988,48.735 	"/>
	<path fill="none" d="M110.493,44.75c0.72-0.004,1.087,0.354,1.09,1.074l0.388,0.374l0.702-0.008l-0.015-1.13l-0.707-0.698
		l-1.458,0.008V44.75z"/>
	<path fill="none" d="M111.733,37.91l-0.004-0.335c-0.005-0.636-0.508-1.001-1.519-1.107l-1.117,0.343l0.002,0.393L111.733,37.91z"
		/>
	<polygon fill="none" points="109.079,50.214 109.454,50.212 109.441,49.456 108.368,49.468 	"/>
	<polygon fill="none" points="107.893,44.85 108.376,43.554 107.882,43.005 107.432,43.834 107.684,44.857 	"/>
	<path fill="none" d="M140.461,93.855l1.414,1.394h0.385l-0.006-0.326C142.251,94.35,141.658,93.989,140.461,93.855z"/>
	<polygon fill="none" points="137.562,96.744 137.562,97.124 137.898,98.203 138.275,98.2 138.27,97.119 137.887,96.744 	"/>
	<path fill="none" d="M149.429,60.161l0.711-0.267l-0.234-0.229l0.383-0.004l-0.321-0.266c-0.281,0.156-0.53,0.32-0.726,0.499
		C149.32,59.973,149.376,60.065,149.429,60.161z"/>
	<polygon fill="none" points="149.159,63.717 146.588,65.993 147.293,65.999 149.143,65.326 149.469,65.332 	"/>
	<path fill="none" d="M142.92,82.523l-0.008-0.381l0.056-0.193h0.323l0.233-0.799l-0.321,0.003l-0.732-1.139
		c-1.571,0.412-3.881,0.765-5.689,1.004c-0.16,0.066-0.324,0.129-0.505,0.188l-0.281,0.831h-0.39l-0.081-0.066l-0.326,0
		l-0.101,0.065h-1.215c-0.258-0.784-0.562-1.184-0.907-1.181l-0.697,0.761v0.42h-0.298v0.196l0.378,0.373l0.009,0.378l-0.754,0.005
		v0.326l0.764,1.13l0.005,0.326L132,84.774l-0.382-0.322h-0.38c0.442,1.083,1.298,2.032,2.571,2.852l0.755-0.006l-1.091-1.4
		l1.073-1.142l0.711,1.13l-1.087,0.008c0.877,1.26,1.856,2.097,2.946,2.524l0.373-0.387l-0.003-0.379
		c-0.009-1.084-0.756-2.282-2.243-3.608l0.759-0.006l0.378,0.377l0.32-0.001c-0.002-0.759,0.242-1.14,0.749-1.144l-0.379-0.322
		v-0.38l1.583-0.62h1.068c1.985,0.256,3.168,0.573,3.517,0.952L142.92,82.523z"/>
	<path fill="none" d="M150.394,62.663l0.177-0.105c-0.091,0.006-0.163,0.02-0.264,0.021L150.394,62.663z"/>
	<polygon fill="none" points="144.432,89.06 143.663,88.364 142.962,88.371 143.672,89.448 143.691,91.229 145.156,91.979 
		145.538,91.976 145.528,90.892 144.445,90.903 	"/>
	<path fill="none" d="M154.541,110.081l0.005,0.338c0,0.522,0.38,0.779,1.121,0.771l-0.344-1.114L154.541,110.081z"/>
	<polygon fill="none" points="138.091,36.584 138.478,36.241 138.478,35.853 137.358,35.861 	"/>
	<polygon fill="none" points="148.749,66.353 148.749,66.986 149.129,66.991 149.462,66.018 149.135,66.014 	"/>
	<polygon fill="none" points="148.357,68.938 148.354,69.281 148.731,69.285 150.925,66.369 150.93,65.685 150.604,65.682 	"/>
	<path fill="none" d="M148.014,70.598l-0.76-0.006l-0.876,1.294c0.177,0.093,0.357,0.213,0.545,0.375l1.091-1.323V70.598z"/>
	<path fill="none" d="M146.923,72.261c0.097,0.083,0.198,0.199,0.299,0.3C147.121,72.45,147.022,72.348,146.923,72.261z"/>
	<path fill="none" d="M148.42,56.436l0.302,0.836c0.523-0.805,0.9-1.367,1.083-1.612l0.445-0.694l-1.465-0.366v0.376l0.386,0.376
		L148.42,56.436z"/>
	<path fill="none" d="M150.578,58.581l0.079-0.024l-0.015-1.812l-0.369,0.375c-0.124,0.376-0.234,0.867-0.333,1.466L150.578,58.581z
		"/>
	<path fill="none" d="M144.522,63.005l0.005,0.7l0.105-0.001c0.185-0.294,0.367-0.584,0.547-0.872l-0.335-0.212L144.522,63.005z"/>
	<polygon fill="none" points="148.769,52.764 148.386,51.687 148.062,51.688 148.068,53.523 	"/>
	<path fill="none" d="M143.386,63.711l-0.32,0.379l-0.374,0.003c-0.008-0.971-0.499-1.455-1.474-1.443l-0.376,0v0.377
		c0.382-0.004,0.752,0.225,1.111,0.635l0.645,0.005v0.295l-0.325,0.098c0.143,0.214,0.282,0.455,0.419,0.735l-0.37,0.377
		c0.292,0,0.618,0.231,0.973,0.667c0.364-0.582,0.722-1.156,1.076-1.72l-0.604-0.412L143.386,63.711z"/>
	<polygon fill="none" points="140.659,74.702 141.423,74.282 141.426,73.821 142.249,73.828 142.514,73.683 142.521,72.852 
		142.138,72.851 142.084,72.875 142.382,73.169 140.671,73.545 	"/>
	<path fill="none" d="M138.364,71.744l0.533,1.219c0.239-0.392,0.481-0.788,0.73-1.192l-1.267-0.732L138.364,71.744z"/>
	<polygon fill="none" points="139.951,76.094 139.939,76.109 139.961,76.109 	"/>
	<path fill="none" d="M136.05,89.888l-0.014-1.462l-1.089-0.374C135.249,89.28,135.612,89.888,136.05,89.888z"/>
	<polygon fill="none" points="142.684,100.386 143.389,101.085 143.772,101.083 143.053,100.382 	"/>
	<polygon fill="none" points="142.564,117.287 141.844,118.076 141.844,119.195 143.687,118.059 142.956,117.282 	"/>
	<polygon fill="none" points="101.186,51.601 101.186,51.326 100.692,51.334 100.701,52.117 	"/>
	<path fill="none" d="M133.232,103.707l-1.084,0.013l-0.003-0.379l0.708-0.008l-0.332-0.32l-0.021-2.544l-0.753,0.002l-0.009-0.755
		l1.824-2.177l-0.38-0.377c1.15-0.296,2.118-1.281,2.899-2.943c-0.397,0.003-0.889-0.841-1.484-2.535l0.703-0.004l0.012,0.756h0.378
		l-0.006-0.758l1.086,0.749l0.754-0.007v-0.38l-0.765-0.75l-0.319,0.377l-0.383,0.006l-4.027-2.894v-0.322l-1.083,0.007
		l-0.379,0.327l-0.376,0.004l2.235,2.202l0.013,1.088l0.323-0.006l-0.008-1.082l0.376-0.004c0.005,0.471,0.622,1.185,1.854,2.149
		l0.009,0.38c-0.903,0.006-1.641,0.499-2.207,1.478l0.767,1.077l-0.762,0.005l-2.561-2.52l-1.078,1.088l-0.702,0.004
		c-1.375-0.891-3.947-1.592-7.704-2.103l-0.716-1.836l-0.381,0.004l0.003,0.704l-0.375,0.002l0.375,0.378l0.013,0.377l-0.702,0.708
		l-3.838,0.033v0.024l-11.102,0.064l-0.294-0.064h-2.261l-0.367,0.083l-2.923,0.028l0.092,10.93h-0.323l-0.013-1.082l-0.049,0.001
		v1.326l0.388,0.513l0.063,8.01l23.646-0.188c1.169,0.533,2.274,1.967,3.344,4.304l-0.384-0.32l-0.327,0.002l-0.371,0.326
		c-0.009-0.974-0.497-1.456-1.477-1.448l0.006,0.378l0.399,2.164l-0.382,0.382l-0.378,0.004l-1.462-0.371l-0.324,0.382l1.101,2.207
		l-0.759,0.006l0.385,0.322l0.005,0.381l-0.701,0.71l-0.385-0.325l0.02,1.087l0.374-0.007l1.39-1.473l1.144,0.37l0.01,1.084
		l-0.761,0.003l0.021,2.546l-1.086-0.697c0.15,1.188,0.881,1.779,2.178,1.771l0.38-0.003l-0.004-0.379
		c-0.725,0.005-1.09-0.224-1.09-0.698c0.538-0.001,1.152-0.493,1.828-1.47l0.323-0.005l-0.003-0.38l-0.328-0.32v-0.38l1.079-0.386
		l-1.104-2.914l1.402-0.015l1.148,0.75l0.322-0.002l-0.007-0.755c-0.976,0.008-1.464-0.589-1.477-1.774v-0.381
		c1.161,1.22,2.144,1.823,2.936,1.818l-0.327-0.375v-0.755c0.902-0.011,1.977,0.593,3.258,1.81l-0.01-1.084l-0.706-0.751
		l-0.378,0.007l0.373-0.329l-0.004-0.378l-0.384-0.376l0.681-2.552c-0.353,0.005-0.832,0.98-1.44,2.936l-0.32,0.001l-0.383-0.374
		v-0.325l0.698-0.765l-0.324-0.374l-0.005-0.328l-0.379,0.007l-0.011-1.14l1.073-1.414v0.323l-0.37,1.082h0.384l1.453-0.333
		l-0.392-1.841c1.217-0.406,1.827-1.131,1.819-2.181l-0.7,0.008l0.303-2.547l0.385,0.322l0.704-0.003l-0.006-1.085
		C133.48,105.709,133.239,104.864,133.232,103.707z M126.007,113.74c0-0.677-0.242-1.015-0.716-1.013l-0.306,0.006l0.005,1.019
		l-0.358,0.004l-1.385-0.708v-0.661l2.396-0.376c0.002,0.477,0.344,0.708,1.018,0.705l0.37,1.017L126.007,113.74z M130.786,104.477
		v0.339l-0.71,0.615h-0.298L130.786,104.477z M129.771,111.978l-0.705,0.72l-0.311-0.354v-0.356l0.656-0.668l0.359,0.299V111.978z
		 M130.774,109.571l-0.345,1.023l-1.033-1.014l0.354-0.358l1.024-0.008V109.571z M130.761,107.527l1.006-1.382l0.378,2.396
		l-1.024,0.004L130.761,107.527z M132.519,110.579l-0.707,0.719l-0.359,0.002l-0.311-1.375h0.302l1.075,0.297V110.579z"/>
	<polygon fill="none" points="153.607,99.92 153.935,99.919 153.93,99.158 151.738,95.931 151.36,95.933 151.363,96.313 	"/>
	<polygon fill="none" points="152.476,100.309 152.146,100.314 150.303,99.568 149.598,99.576 152.165,102.098 	"/>
	<polygon fill="none" points="151.022,94.474 151.021,94.099 148.062,90.114 148.068,90.872 150.262,94.482 	"/>
	<polygon fill="none" points="147.652,86.111 146.948,86.118 146.952,86.498 148.047,87.572 148.045,87.19 	"/>
	<path fill="none" d="M154.372,106.845l-2.554-1.063c0.399,0.716,1.246,1.305,2.554,1.764V106.845z"/>
	<path fill="none" d="M150.239,91.18l-0.006-0.322c-0.478-1.116-0.971-1.726-1.473-1.832l1.096,2.159L150.239,91.18z"/>
	<polygon fill="none" points="145.819,86.885 146.583,87.585 146.583,87.204 145.815,86.504 	"/>
	<polygon fill="none" points="144.531,101.833 144.856,102.157 145.612,102.148 145.612,101.824 144.531,101.456 	"/>
	<polygon fill="none" points="151.761,99.177 152.142,99.553 152.468,99.548 152.136,98.47 151.761,98.474 	"/>
	<polygon fill="none" points="102.662,118.384 103.389,119.109 103.786,119.103 102.656,117.993 	"/>
	<polygon fill="none" points="100.715,112.746 101.838,113.469 102.227,113.461 100.709,112.353 	"/>
	<path fill="none" d="M118.185,90.027c1.219-1.378,1.818-2.72,1.812-4.021l-1.082,0.012l-0.378,0.322l-0.376,0.004l-0.003-0.701
		l-1.086,0.386l0.006,0.702l0.378,0.378l0.011,0.323l-0.384,0.382l1.095,1.074l-0.373,0.005L118.185,90.027z"/>
	<path fill="none" d="M115.586,83.12c0.01,0.541,0.622,0.899,1.85,1.064l0.323-0.376l-0.003-0.381l-2.17-0.686V83.12z"/>
	<polygon fill="none" points="115.426,79.942 115.483,79.911 115.479,79.534 115.426,79.534 	"/>
	<polygon fill="none" points="98.492,115.005 98.5,116.181 99.23,116.173 99.227,115.782 	"/>
	<path fill="none" d="M121.451,84.859l-1.466-0.316l-0.377,0.33c-0.009-0.72-0.245-1.081-0.711-1.08l-0.758,0.008v0.758l1.851,1.068
		l1.461-0.39V84.859z"/>
	<polygon fill="none" points="109.811,53.828 108.402,54.216 108.915,54.68 110.344,55.133 110.952,54.522 	"/>
	<path fill="none" d="M98.712,44.423l0.445-1.848l-0.212,0.002c-0.4,0.002-0.628,0.355-0.695,1.065l0.219,0.781H98.712z"/>
	<polygon fill="none" points="128.742,90.645 128.742,89.943 127.655,89.953 127.665,90.656 	"/>
	<polygon fill="none" points="112.415,55.267 113.129,55.961 113.498,55.959 113.823,55.632 114.206,55.628 114.2,54.495 	"/>
	<path fill="none" d="M98.314,71.956h17.014l0.089-0.033l1.466,0.365l0.376-0.379l0.379-0.003l0.329,0.376l0.378-0.004l2.215-0.393
		l0.702-0.01l2.183,1.444l0.375-0.005v-0.378c-0.728,0.007-1.087-0.35-1.095-1.071c3.859-0.031,6.024-2.347,6.495-6.965
		c-0.04-5.069-3.096-7.581-9.154-7.535l-0.539,0.028c-0.012-1.19-2.231-1.01-5.32-1.765c0.002,0.468,0.365,0.702,1.084,0.691v0.378
		l-4.946-1.564l-0.146,0.149l-1.139-0.474l1.837,1.666l-4.912-0.67l6.499,1.221l-1.291,0.384l-12.534,0.123l0.153-0.861l1.327-1.275
		l-1.625,0.145l-0.203,1.296l0.017,0.749l-0.06,0.005v-0.058l-0.07,0.002l0.026,3.591l-0.034-0.017v2.325l0.059,0.139l-0.059,0.354
		v3.004l0.08-0.194L98.314,71.956z"/>
	<path fill="none" d="M120.629,80.248l-0.377,0.383l-0.381,0.004l-0.713-1.125c-0.757,0.004-1.137,0.382-1.127,1.14l-0.329-0.377
		l-0.758,0.008l0.003,1.079l3.686-0.406L120.629,80.248z"/>
	<polygon fill="none" points="114.287,117.174 115.071,116.383 114.279,115.663 	"/>
	<polygon fill="none" points="107.6,127.024 106.876,127.757 106.884,128.873 108.783,128.132 108.775,127.018 	"/>
	<polygon fill="none" points="108.358,123.995 108.749,123.991 108.737,122.872 107.565,122.879 107.566,123.215 	"/>
	<polygon fill="none" points="104.562,118.761 104.575,119.882 105.305,119.875 104.9,118.761 	"/>
	<polygon fill="none" points="106.813,120.256 107.55,120.976 107.943,120.976 106.813,119.863 	"/>
	<polygon fill="none" points="105.355,126.256 105.355,126.649 105.746,126.642 106.464,125.857 106.464,125.519 106.068,125.524 	
		"/>
	<path fill="none" d="M139.863,108.686l0.005,0.339c0.486-0.005,0.73,0.384,0.735,1.167l0.387-0.002l0.383-1.513l-0.398-0.391
		L139.863,108.686z"/>
	<path fill="none" d="M139.491,110.537l-0.009-0.728l-1.853-0.379c-1.523,0.608-2.285,1.119-2.285,1.53l0.007,0.391l0.389,0
		l0.389-0.396l1.514,0.376l-0.374,1.852l0.397,0.387h0.328l0.391-0.397v-0.333l-0.393-0.387l0.384-0.395l0.391-0.004l-0.391-0.332
		v-0.394C138.37,110.806,138.739,110.544,139.491,110.537z"/>
	<path fill="none" d="M140.148,102.19l0.374-0.328l-0.377,0.004l0.377-0.381l-0.004-0.379l-0.765-1.078l0.76-0.004l-0.008-0.379
		l-0.758,0.004l-0.371,0.383c-0.009-0.717-0.373-1.081-1.096-1.074c0.011,0.976-0.343,1.463-1.065,1.47v0.704l0.385,0.373
		l-0.377,0.385l0.013,0.702c0.715-0.004,1.083,0.352,1.083,1.075c0.974-0.013,1.465,0.241,1.469,0.749l0.003,0.326l0.757-0.01
		l-0.005-0.702L140.148,102.19z"/>
	<polygon fill="none" points="137.322,119.228 136.927,119.232 136.938,120.746 137.722,120.738 137.713,120.345 	"/>
	<path fill="none" d="M136.517,117.333v-0.731l-0.357-1.504l0.339-0.397l-0.007-0.334c-0.31-1.265-0.683-1.896-1.131-1.895v0.391
		l0.821,4.474L136.517,117.333z"/>
	<polygon fill="none" points="136.221,122.26 135.827,122.264 136.226,123.382 136.567,123.377 136.559,122.647 	"/>
	<path fill="none" d="M132.198,72.168c0-0.434-0.625-0.787-1.845-1.063v0.322l1.086,0.745L132.198,72.168z"/>
	<polygon fill="none" points="120.687,46.831 121.458,48.658 121.783,48.656 121.769,47.198 120.681,46.454 	"/>
	<polygon fill="none" points="129.563,60.584 129.563,60.203 129.18,59.83 128.478,59.84 128.483,60.212 	"/>
	<polygon fill="none" points="119.584,45.002 119.591,45.382 120.358,46.13 121.06,46.126 119.971,45.002 	"/>
	<polygon fill="none" points="117.793,50.471 117.793,50.848 119.254,51.216 119.643,51.212 119.639,50.835 118.172,50.467 	"/>
	<path fill="none" d="M132.448,55.802l-0.377,0.388v0.374c0.483,1.438,0.975,2.156,1.479,2.152v-0.38l-0.766-1.072l-0.011-1.077
		c0.723-0.008,1.089,0.475,1.095,1.446l1.84-0.39c-0.006-0.434-1.473-1.267-4.406-2.507l-0.322,0.003v0.382
		C130.987,55.587,131.473,55.814,132.448,55.802z"/>
	<polygon fill="none" points="141.075,44.833 141.453,44.831 141.453,44.507 141.061,43.431 140.688,43.434 140.693,43.755 	"/>
	<path fill="none" d="M140.78,55.742l0.403,2.534l0.375-0.324l0.325-0.004l2.632,4.295l0.321-0.002l-0.004-0.323l-0.726-2.908h0.387
		l0.704,0.69l-0.375,0.379l0.759-0.002c0.003,0.692,0.228,1.04,0.662,1.066c0.145-0.229,0.284-0.447,0.424-0.667v-0.03l0.012,0.011
		c0.56-0.882,1.068-1.678,1.512-2.367c-0.05-0.158-0.085-0.339-0.088-0.572l-0.38-0.374l-0.381,0.004l-0.317,0.382l-0.381,0.002
		v-0.376l0.373-0.379l-0.009-0.702l-0.381,0.002l0.008,0.7l-0.377,0l-1.088-0.69l0.006,0.703h-0.381l-0.011-0.7l-0.319,0.382
		l-0.374,0.001l0.38,0.32l0.007,0.756l-0.38-0.376l-0.38,0.384l-0.707,0.006l0.328-0.382l-0.006-0.704l-1.079,0.712
		c-0.468,0.002-0.701-0.355-0.711-1.074l-0.382-0.376L140.78,55.742z"/>
	<path fill="none" d="M134.26,59.466l-1.08,0.332l0.007,0.377c0.647-0.004,1.373,0.475,2.179,1.438l-0.006-0.376l1.144,0.368v0.38
		l-1.464,0.01l0.004,0.326l2.903,3.972l1.857,2.201l-2.972-5.106l0.381-0.004l1.853,0.742l0.32-0.004v-0.376
		c-0.723,0.004-1.086-0.228-1.086-0.694l1.073-1.091l-5.107-2.17L134.26,59.466z"/>
	<path fill="none" d="M138.258,57.976l-0.379,0.001l-0.331-0.375l-0.376,0.002v0.379c0.008,0.467,0.618,0.7,1.848,0.686
		c0.009,0.722,0.502,1.079,1.471,1.072c0.008,1.473,0.257,2.206,0.723,2.202h0.375v-0.378l-0.753,0.006l-0.013-0.377l0.752-1.463
		l-0.381,0.004l-0.375,0.379c-0.008-0.717-0.367-1.075-1.095-1.07l-1.479-2.903l-1.09,0.007l0.006,0.377L138.258,57.976z"/>
	<path fill="none" d="M120.347,44.674c-0.376-1.221-0.864-1.828-1.477-1.824l0.318-0.382v-0.325l-1.469-0.74l1.486,3.281
		L120.347,44.674z"/>
	<polygon fill="none" points="112.354,47.276 112.292,46.462 110.07,46.158 110.144,47.995 111.228,47.984 111.228,48.362 
		109.763,48.373 109.767,48.751 111.228,48.742 111.604,48.362 111.602,47.982 111.213,46.904 111.592,47.282 	"/>
	<polygon fill="none" points="107.893,44.85 108.376,43.554 107.882,43.005 107.432,43.834 107.684,44.857 	"/>
	<path fill="none" d="M101.543,43.34c-0.003-0.523,0.227-0.79,0.695-0.793l0.242-0.279l-0.004-0.511l-0.734,0.01l-0.454,0.514
		l0.008,1.06H101.543z"/>
	<polygon fill="none" points="105.478,34.773 105.725,33.678 105.725,33.39 105.469,33.391 105.224,34.491 105.228,34.773 	"/>
	<polygon fill="none" points="103.649,49.562 104.041,47.012 104.285,47.012 104.292,48.074 104.537,48.071 105.15,47.149 
		104.285,46.739 104.038,46.741 103.338,47.023 103.584,46.746 103.579,46.196 103.091,46.198 103.492,48.71 	"/>
	<polygon fill="none" points="105.029,38.028 105.253,38.835 105.509,38.835 105.752,37.777 105.5,37.779 105.244,38.024 	"/>
	<polygon fill="none" points="111.607,48.739 111.613,49.062 113.453,49.425 113.777,49.424 113.774,49.045 111.988,48.735 	"/>
	<polygon fill="none" points="109.079,50.214 109.454,50.212 109.441,49.456 108.368,49.468 	"/>
	<polygon fill="none" points="146.623,54.994 146.615,54.24 146.23,53.917 145.856,53.918 146.246,55 	"/>
	<polygon fill="none" points="113.457,50.178 112.378,50.514 112.378,50.89 113.79,51.258 113.788,50.879 113.461,50.503 	"/>
	<path fill="none" d="M110.493,44.75c0.72-0.004,1.087,0.354,1.09,1.074l0.388,0.374l0.702-0.008l-0.015-1.13l-0.707-0.698
		l-1.458,0.008V44.75z"/>
	<path fill="none" d="M111.733,37.91l-0.004-0.335c-0.005-0.636-0.508-1.001-1.519-1.107l-1.117,0.343l0.002,0.393L111.733,37.91z"
		/>
	<polygon fill="none" points="104.487,38.599 104.729,37.217 106.104,35.9 104.422,36.048 104.213,37.39 104.24,38.625 	"/>
	<polygon fill="none" points="140.659,74.702 141.423,74.282 141.426,73.821 142.249,73.828 142.514,73.683 142.521,72.852 
		142.138,72.851 142.084,72.875 142.382,73.169 140.671,73.545 	"/>
	<path fill="none" d="M139.628,71.771l-1.267-0.732l0.003,0.706l0.533,1.219C139.137,72.571,139.379,72.175,139.628,71.771z"/>
	<path fill="none" d="M136.05,89.888l-0.014-1.462l-1.089-0.374C135.249,89.28,135.612,89.888,136.05,89.888z"/>
	<polygon fill="none" points="139.939,76.109 139.961,76.109 139.951,76.094 	"/>
	<path fill="none" d="M143.294,65.842c0.364-0.582,0.722-1.156,1.076-1.72l-0.604-0.412l-0.381,0.001l-0.32,0.379l-0.374,0.003
		c-0.008-0.971-0.499-1.455-1.474-1.443l-0.376,0v0.377c0.382-0.004,0.752,0.225,1.111,0.635l0.645,0.005v0.295l-0.325,0.098
		c0.143,0.214,0.282,0.455,0.419,0.735l-0.37,0.377C142.613,65.175,142.939,65.406,143.294,65.842z"/>
	<path fill="none" d="M140.461,93.855l1.414,1.394h0.385l-0.006-0.326C142.251,94.35,141.658,93.989,140.461,93.855z"/>
	<path fill="none" d="M154.541,110.081l0.005,0.338c0,0.522,0.38,0.779,1.121,0.771l-0.344-1.114L154.541,110.081z"/>
	<path fill="none" d="M142.92,82.523l-0.008-0.381l0.056-0.193h0.323l0.233-0.799l-0.321,0.003l-0.732-1.139
		c-1.571,0.412-3.881,0.765-5.689,1.004c-0.16,0.066-0.324,0.129-0.505,0.188l-0.281,0.831h-0.39l-0.081-0.066l-0.326,0
		l-0.101,0.065h-1.215c-0.258-0.784-0.562-1.184-0.907-1.181l-0.697,0.761v0.42h-0.298v0.196l0.378,0.373l0.009,0.378l-0.754,0.005
		v0.326l0.764,1.13l0.005,0.326L132,84.774l-0.382-0.322h-0.38c0.442,1.083,1.298,2.032,2.571,2.852l0.755-0.006l-1.091-1.4
		l1.073-1.142l0.711,1.13l-1.087,0.008c0.877,1.26,1.856,2.097,2.946,2.524l0.373-0.387l-0.003-0.379
		c-0.009-1.084-0.756-2.282-2.243-3.608l0.759-0.006l0.378,0.377l0.32-0.001c-0.002-0.759,0.242-1.14,0.749-1.144l-0.379-0.322
		v-0.38l1.583-0.62h1.068c1.985,0.256,3.168,0.573,3.517,0.952L142.92,82.523z"/>
	<polygon fill="none" points="138.091,36.584 138.478,36.241 138.478,35.853 137.358,35.861 	"/>
	<polygon fill="none" points="144.432,89.06 143.663,88.364 142.962,88.371 143.672,89.448 143.691,91.229 145.156,91.979 
		145.538,91.976 145.528,90.892 144.445,90.903 	"/>
	<polygon fill="none" points="146.588,65.993 147.293,65.999 149.143,65.326 149.469,65.332 149.159,63.717 	"/>
	<polygon fill="none" points="148.357,68.938 148.354,69.281 148.731,69.285 150.925,66.369 150.93,65.685 150.604,65.682 	"/>
	<path fill="none" d="M150.307,62.579l0.087,0.084l0.177-0.105C150.479,62.563,150.407,62.577,150.307,62.579z"/>
	<path fill="none" d="M150.578,58.581l0.079-0.024l-0.015-1.812l-0.369,0.375c-0.124,0.376-0.234,0.867-0.333,1.466L150.578,58.581z
		"/>
	<path fill="none" d="M148.42,56.436l0.302,0.836c0.523-0.805,0.9-1.367,1.083-1.612l0.445-0.694l-1.465-0.366v0.376l0.386,0.376
		L148.42,56.436z"/>
	<polygon fill="none" points="148.769,52.764 148.386,51.687 148.062,51.688 148.068,53.523 	"/>
	<path fill="none" d="M146.378,71.886c0.177,0.093,0.357,0.213,0.545,0.375l1.091-1.323v-0.34l-0.76-0.006L146.378,71.886z"/>
	<path fill="none" d="M144.522,63.005l0.005,0.7l0.105-0.001c0.185-0.294,0.367-0.584,0.547-0.872l-0.335-0.212L144.522,63.005z"/>
	<polygon fill="none" points="148.749,66.353 148.749,66.986 149.129,66.991 149.462,66.018 149.135,66.014 	"/>
	<path fill="none" d="M149.967,59.395c-0.281,0.156-0.53,0.32-0.726,0.499c0.079,0.079,0.135,0.171,0.188,0.267l0.711-0.267
		l-0.234-0.229l0.383-0.004L149.967,59.395z"/>
	<polygon fill="none" points="148.074,53.902 147.693,53.908 146.997,54.614 148.083,54.604 	"/>
	<polygon fill="none" points="137.562,96.744 137.562,97.124 137.898,98.203 138.275,98.2 138.27,97.119 137.887,96.744 	"/>
	<path fill="none" d="M139.491,110.537l-0.009-0.728l-1.853-0.379c-1.523,0.608-2.285,1.119-2.285,1.53l0.007,0.391l0.389,0
		l0.389-0.396l1.514,0.376l-0.374,1.852l0.397,0.387h0.328l0.391-0.397v-0.333l-0.393-0.387l0.384-0.395l0.391-0.004l-0.391-0.332
		v-0.394C138.37,110.806,138.739,110.544,139.491,110.537z"/>
	<path fill="none" d="M140.148,102.19l0.374-0.328l-0.377,0.004l0.377-0.381l-0.004-0.379l-0.765-1.078l0.76-0.004l-0.008-0.379
		l-0.758,0.004l-0.371,0.383c-0.009-0.717-0.373-1.081-1.096-1.074c0.011,0.976-0.343,1.463-1.065,1.47v0.704l0.385,0.373
		l-0.377,0.385l0.013,0.702c0.715-0.004,1.083,0.352,1.083,1.075c0.974-0.013,1.465,0.241,1.469,0.749l0.003,0.326l0.757-0.01
		l-0.005-0.702L140.148,102.19z"/>
	<path fill="none" d="M139.863,108.686l0.005,0.339c0.486-0.005,0.73,0.384,0.735,1.167l0.387-0.002l0.383-1.513l-0.398-0.391
		L139.863,108.686z"/>
	<polygon fill="none" points="142.564,117.287 141.844,118.076 141.844,119.195 143.687,118.059 142.956,117.282 	"/>
	<path fill="none" d="M133.232,103.707l-1.084,0.013l-0.003-0.379l0.708-0.008l-0.332-0.32l-0.021-2.544l-0.753,0.002l-0.009-0.755
		l1.824-2.177l-0.38-0.377c1.15-0.296,2.118-1.281,2.899-2.943c-0.397,0.003-0.889-0.841-1.484-2.535l0.703-0.004l0.012,0.756h0.378
		l-0.006-0.758l1.086,0.749l0.754-0.007v-0.38l-0.765-0.75l-0.319,0.377l-0.383,0.006l-4.027-2.894v-0.322l-1.083,0.007
		l-0.379,0.327l-0.376,0.004l2.235,2.202l0.013,1.088l0.323-0.006l-0.008-1.082l0.376-0.004c0.005,0.471,0.622,1.185,1.854,2.149
		l0.009,0.38c-0.903,0.006-1.641,0.499-2.207,1.478l0.767,1.077l-0.762,0.005l-2.561-2.52l-1.078,1.088l-0.702,0.004
		c-1.375-0.891-3.947-1.592-7.704-2.103l-0.716-1.836l-0.381,0.004l0.003,0.704l-0.375,0.002l0.375,0.378l0.013,0.377l-0.702,0.708
		l-3.838,0.033v0.024l-11.102,0.064l-0.294-0.064h-2.261l-0.367,0.083l-2.923,0.028l0.092,10.93h-0.323l-0.013-1.082l-0.049,0.001
		v1.326l0.388,0.513l0.063,8.01l23.646-0.188c1.169,0.533,2.274,1.967,3.344,4.304l-0.384-0.32l-0.327,0.002l-0.371,0.326
		c-0.009-0.974-0.497-1.456-1.477-1.448l0.006,0.378l0.399,2.164l-0.382,0.382l-0.378,0.004l-1.462-0.371l-0.324,0.382l1.101,2.207
		l-0.759,0.006l0.385,0.322l0.005,0.381l-0.701,0.71l-0.385-0.325l0.02,1.087l0.374-0.007l1.39-1.473l1.144,0.37l0.01,1.084
		l-0.761,0.003l0.021,2.546l-1.086-0.697c0.15,1.188,0.881,1.779,2.178,1.771l0.38-0.003l-0.004-0.379
		c-0.725,0.005-1.09-0.224-1.09-0.698c0.538-0.001,1.152-0.493,1.828-1.47l0.323-0.005l-0.003-0.38l-0.328-0.32v-0.38l1.079-0.386
		l-1.104-2.914l1.402-0.015l1.148,0.75l0.322-0.002l-0.007-0.755c-0.976,0.008-1.464-0.589-1.477-1.774v-0.381
		c1.161,1.22,2.144,1.823,2.936,1.818l-0.327-0.375v-0.755c0.902-0.011,1.977,0.593,3.258,1.81l-0.01-1.084l-0.706-0.751
		l-0.378,0.007l0.373-0.329l-0.004-0.378l-0.384-0.376l0.681-2.552c-0.353,0.005-0.832,0.98-1.44,2.936l-0.32,0.001l-0.383-0.374
		v-0.325l0.698-0.765l-0.324-0.374l-0.005-0.328l-0.379,0.007l-0.011-1.14l1.073-1.414v0.323l-0.37,1.082h0.384l1.453-0.333
		l-0.392-1.841c1.217-0.406,1.827-1.131,1.819-2.181l-0.7,0.008l0.303-2.547l0.385,0.322l0.704-0.003l-0.006-1.085
		C133.48,105.709,133.239,104.864,133.232,103.707z M126.007,113.74c0-0.677-0.242-1.015-0.716-1.013l-0.306,0.006l0.005,1.019
		l-0.358,0.004l-1.385-0.708v-0.661l2.396-0.376c0.002,0.477,0.344,0.708,1.018,0.705l0.37,1.017L126.007,113.74z M130.786,104.477
		v0.339l-0.71,0.615h-0.298L130.786,104.477z M129.771,111.978l-0.705,0.72l-0.311-0.354v-0.356l0.656-0.668l0.359,0.299V111.978z
		 M130.774,109.571l-0.345,1.023l-1.033-1.014l0.354-0.358l1.024-0.008V109.571z M130.761,107.527l1.006-1.382l0.378,2.396
		l-1.024,0.004L130.761,107.527z M132.519,110.579l-0.707,0.719l-0.359,0.002l-0.311-1.375h0.302l1.075,0.297V110.579z"/>
	<polygon fill="none" points="101.186,51.601 101.186,51.326 100.692,51.334 100.701,52.117 	"/>
	<polygon fill="none" points="137.322,119.228 136.927,119.232 136.938,120.746 137.722,120.738 137.713,120.345 	"/>
	<polygon fill="none" points="142.684,100.386 143.389,101.085 143.772,101.083 143.053,100.382 	"/>
	<polygon fill="none" points="136.221,122.26 135.827,122.264 136.226,123.382 136.567,123.377 136.559,122.647 	"/>
	<path fill="none" d="M136.517,117.333v-0.731l-0.357-1.504l0.339-0.397l-0.007-0.334c-0.31-1.265-0.683-1.896-1.131-1.895v0.391
		l0.821,4.474L136.517,117.333z"/>
	<polygon fill="none" points="145.819,86.885 146.583,87.585 146.583,87.204 145.815,86.504 	"/>
	<path fill="none" d="M154.372,106.845l-2.554-1.063c0.399,0.716,1.246,1.305,2.554,1.764V106.845z"/>
	<polygon fill="none" points="151.022,94.474 151.021,94.099 148.062,90.114 148.068,90.872 150.262,94.482 	"/>
	<polygon fill="none" points="152.476,100.309 152.146,100.314 150.303,99.568 149.598,99.576 152.165,102.098 	"/>
	<polygon fill="none" points="151.761,99.177 152.142,99.553 152.468,99.548 152.136,98.47 151.761,98.474 	"/>
	<polygon fill="none" points="147.652,86.111 146.948,86.118 146.952,86.498 148.047,87.572 148.045,87.19 	"/>
	<polygon fill="none" points="153.607,99.92 153.935,99.919 153.93,99.158 151.738,95.931 151.36,95.933 151.363,96.313 	"/>
	<path fill="none" d="M150.239,91.18l-0.006-0.322c-0.478-1.116-0.971-1.726-1.473-1.832l1.096,2.159L150.239,91.18z"/>
	<polygon fill="none" points="144.531,101.833 144.856,102.157 145.612,102.148 145.612,101.824 144.531,101.456 	"/>
	<polygon fill="none" points="115.426,79.942 115.483,79.911 115.479,79.534 115.426,79.534 	"/>
	<polygon fill="none" points="102.662,118.384 103.389,119.109 103.786,119.103 102.656,117.993 	"/>
	<path fill="none" d="M115.586,83.12c0.01,0.541,0.622,0.899,1.85,1.064l0.323-0.376l-0.003-0.381l-2.17-0.686V83.12z"/>
	<polygon fill="none" points="98.492,115.005 98.5,116.181 99.23,116.173 99.227,115.782 	"/>
	<polygon fill="none" points="100.715,112.746 101.838,113.469 102.227,113.461 100.709,112.353 	"/>
	<path fill="none" d="M121.451,84.859l-1.466-0.316l-0.377,0.33c-0.009-0.72-0.245-1.081-0.711-1.08l-0.758,0.008v0.758l1.851,1.068
		l1.461-0.39V84.859z"/>
	<polygon fill="none" points="112.415,55.267 113.129,55.961 113.498,55.959 113.823,55.632 114.206,55.628 114.2,54.495 	"/>
	<polygon fill="none" points="109.811,53.828 108.402,54.216 108.915,54.68 110.344,55.133 110.952,54.522 	"/>
	<polygon fill="none" points="128.742,90.645 128.742,89.943 127.655,89.953 127.665,90.656 	"/>
	<path fill="none" d="M98.314,71.956h17.014l0.089-0.033l1.466,0.365l0.376-0.379l0.379-0.003l0.329,0.376l0.378-0.004l2.215-0.393
		l0.702-0.01l2.183,1.444l0.375-0.005v-0.378c-0.728,0.007-1.087-0.35-1.095-1.071c3.859-0.031,6.024-2.347,6.495-6.965
		c-0.04-5.069-3.096-7.581-9.154-7.535l-0.539,0.028c-0.012-1.19-2.231-1.01-5.32-1.765c0.002,0.468,0.365,0.702,1.084,0.691v0.378
		l-4.946-1.564l-0.146,0.149l-1.139-0.474l1.837,1.666l-4.912-0.67l6.499,1.221l-1.291,0.384l-12.534,0.123l0.153-0.861l1.327-1.275
		l-1.625,0.145l-0.203,1.296l0.017,0.749l-0.06,0.005v-0.058l-0.07,0.002l0.026,3.591l-0.034-0.017v2.325l0.059,0.139l-0.059,0.354
		v3.004l0.08-0.194L98.314,71.956z"/>
	<path fill="none" d="M118.185,90.027c1.219-1.378,1.818-2.72,1.812-4.021l-1.082,0.012l-0.378,0.322l-0.376,0.004l-0.003-0.701
		l-1.086,0.386l0.006,0.702l0.378,0.378l0.011,0.323l-0.384,0.382l1.095,1.074l-0.373,0.005L118.185,90.027z"/>
	<path fill="none" d="M120.629,80.248l-0.377,0.383l-0.381,0.004l-0.713-1.125c-0.757,0.004-1.137,0.382-1.127,1.14l-0.329-0.377
		l-0.758,0.008l0.003,1.079l3.686-0.406L120.629,80.248z"/>
	<polygon fill="none" points="107.6,127.024 106.876,127.757 106.884,128.873 108.783,128.132 108.775,127.018 	"/>
	<polygon fill="none" points="108.358,123.995 108.749,123.991 108.737,122.872 107.565,122.879 107.566,123.215 	"/>
	<path fill="none" d="M98.712,44.423l0.445-1.848l-0.212,0.002c-0.4,0.002-0.628,0.355-0.695,1.065l0.219,0.781H98.712z"/>
	<polygon fill="none" points="114.287,117.174 115.071,116.383 114.279,115.663 	"/>
	<polygon fill="none" points="105.355,126.256 105.355,126.649 105.746,126.642 106.464,125.857 106.464,125.519 106.068,125.524 	
		"/>
	<polygon fill="none" points="104.562,118.761 104.575,119.882 105.305,119.875 104.9,118.761 	"/>
	<polygon fill="none" points="106.813,120.256 107.55,120.976 107.943,120.976 106.813,119.863 	"/>
	<path d="M155.459,107.536l-0.014-1.46l-0.706,0.004l-0.375,0.384l-0.388-1.458l-0.009-0.379l0.377-0.329l-1.09-0.747v-0.381
		l2.178,1.445l0.376-0.001l-1.115-3.998l0.706-0.003l-0.336-1.462l-0.002-0.326l0.318-0.379c-0.495-3.462-1.367-6.486-2.61-9.07
		c-2.122-4.221-5.936-7.346-5.936-7.346c-0.226-0.257-1.318-1.077-1.85-1.269l4.44-5.118c-0.002-0.003-0.021-0.004-0.036-0.006
		c0.14-0.136,0.289-0.29,0.38-0.436c1.242-2.334,2.112-5.064,2.611-8.188l-0.32-0.342l0.006-0.294l0.333-1.32l-0.705-0.002
		l0.888-2.874l0.262-0.002c-0.023-3.453-1.026-7.547-3.015-12.283l-0.324,0.323l-0.373,0.006l-0.009-0.326l0.379-0.381
		c-0.002-0.501-0.384-0.753-1.144-0.748c-0.004-1.295-0.377-2.133-1.096-2.531l-0.33-0.316l0.005,1.076l-0.382,0.004v-0.754
		l-2.163,0.772l0.009,0.38l0.322,0.32l-0.322,0.004l-1.146-0.694l0.755-0.76v-0.327l-0.387-0.377l1.083-0.009l0.012,1.081
		l0.379-0.002l1.459-0.714l-0.004-0.755l-0.764,0.007l-0.325,0.38c-0.015-1.869-1.248-3.194-3.707-3.966
		c-1.316-1.934-5.333-3.593-12.058-4.981l0.003,0.327l-1.788-0.311h-0.38l-0.375,0.329l-0.328-0.32
		c0.005,1.042,1.855,4.177,5.544,9.405c0.142,0.429,0.312,0.84,0.505,1.236l-0.005,0.547l0.321,0.002
		c0.538,0.932,1.215,1.776,2.077,2.512l1.459-0.016l-0.329-1.076v-0.375l0.324-0.004l1.472,1.122l0.377-0.003l-0.365,1.084v0.377
		l0.38,0.325l-1.826,1.845c0.976-0.005,1.459,0.349,1.468,1.071l-0.374,0.003l-0.334-0.378l0.011,1.134l0.704-0.004l0.001,0.326
		l-0.703,0.004l-0.381-0.321v0.327c-1.233-0.642-1.848-1.229-1.855-1.774l-0.322,0.008l0.008,0.7l-1.145-0.693l0.376-0.38
		l-0.711-1.078v-0.376l0.703-0.004c-0.009-0.756-2.092-4.25-6.259-10.477c-1.829-3.622-2.943-5.436-3.345-5.43l-18.081,0.143v-0.008
		l-0.275,0.001l-0.002,0.01l-4.635,0.034l0.237,1.631l-2.128,1.078l0.129-2.691h0.212l0.245,0.23c0-0.082,0.018-0.162,0.046-0.238
		l-0.415,0.003l-23.717,0.189h-1.78v2.638c-0.005,0.098-0.033,0.185-0.03,0.29l0.011,1.458l0.02,0.022v1.762h-0.009l0.007,0.754
		h0.002v28.377H56.344v21.05H74.44v40.529h5.42v0.062l0.062-0.062h1.026l0.053,0.05l2.544-0.022l0.024-0.028h0.653l0.024,0.022
		l0.566-0.005v0.037l1.913-0.017h11.161v-0.175l0.29-0.293l0.326,0.378l2.547-0.021c0.355-0.003,0.713-0.495,1.067-1.473
		c-0.728-0.781-1.093-1.63-1.104-2.531l-0.318,0.382h-0.377l-0.387-0.373l-0.701,0.006l0.01,1.081l-1.354-1.29v-1.24l0.245,0
		l-0.245-0.229v-4.028c0.309,0.411,0.737,0.622,1.301,0.618c0.007,0.726,0.376,1.08,1.091,1.075l0.007,0.705l0.702-0.006
		l0.003,0.753l-1.073,0.392l0.774,1.778l0.698-0.006l0.379-0.326v0.326l-0.376,0.378l1.85,1.068c-0.005-0.973,0.477-1.467,1.45-1.47
		l-0.004-0.705l-0.383-0.377l0.697-0.008l0.387,0.378c-1.036,1.126-1.743,2.828-2.123,5.106l2.868-0.024l0.373-0.382l0.384,0.373
		l16.018-0.121l1.84-0.396l-0.38-0.324l0.685-1.843l0.386,0.375l0.697-0.768l-0.008-0.7l-0.706,0.005v-0.377l0.377-0.382
		l1.788,0.361v0.382l-1.078,0.004l0.017,1.792l0.379,0.375l-0.756,0.005l0.761,0.754l1.838-0.016c0-0.757,0.351-1.139,1.075-1.147
		l-0.004-0.705l-0.372,0.008l-0.382,0.378c-0.009-0.904-0.501-1.745-1.485-2.529l2.233,1.06h0.324l-0.714-1.078l-0.004-0.377
		l0.377-0.002l1.085,0.693l0.388-0.002l-0.003-0.322c-0.005-0.615-0.499-0.988-1.475-1.122l-0.006-1.087
		c0.613-0.001,0.967-0.496,1.072-1.473l-0.76,0.012l0.368-1.468l2.556,1.441l0.379-0.002l-0.009-0.325l-3.331-3.976l-0.002-0.382
		l0.758-0.006l1.084,0.694c1.229-0.008,1.852,0.599,1.858,1.829l0.006,0.375l-0.377,0.33c0.979,0.497,1.47,1.105,1.473,1.827h0.382
		l-0.007-0.706l0.323-0.004l0.39,0.325l-0.379,0.385l0.769,1.829l-0.758,0.007c-0.005-0.973-0.371-1.458-1.092-1.453v0.324
		l0.775,2.217l-0.371,1.084l1.479,1.446c1.512-0.084,4.526-1.567,9.051-4.454c5.771-5.602,8.64-10.115,8.605-13.545l-0.003-0.705
		c-0.716,0.007-1.084-0.241-1.084-0.746l-0.004-0.327l0.756-0.005l0.332,1.078c0.507,0,0.88-0.98,1.115-2.929l-0.761-0.699
		l-0.384,0.004l0.021,2.165c-0.468,0.002-0.839-0.968-1.111-2.913l1.09,0.37L155.459,107.536z M137.406,39.461l-0.374,0.332
		l-0.708-0.699l1.082-0.008V39.461z M145.528,90.892l0.01,1.083l-0.382,0.004l-1.465-0.75l-0.02-1.782l-0.71-1.077l0.701-0.007
		l0.769,0.695l0.014,1.843L145.528,90.892z M139.723,81.949h-1.068l-1.583,0.62v0.38l0.379,0.322
		c-0.507,0.004-0.751,0.384-0.749,1.144l-0.32,0.001l-0.378-0.377l-0.759,0.006c1.487,1.326,2.234,2.524,2.243,3.608l0.003,0.379
		l-0.373,0.387c-1.09-0.427-2.069-1.264-2.946-2.524l1.087-0.008l-0.711-1.13l-1.073,1.142l1.091,1.4l-0.755,0.006
		c-1.273-0.82-2.129-1.769-2.571-2.852h0.38L132,84.774l0.382-0.002l-0.005-0.326l-0.764-1.13v-0.326l0.754-0.005l-0.009-0.378
		l-0.378-0.373v-0.196h0.298v-0.42l0.697-0.761c0.346-0.003,0.649,0.397,0.907,1.181h1.215l0.101-0.065l0.326,0l0.081,0.066h0.39
		l0.281-0.831c0.181-0.06,0.345-0.123,0.505-0.188c1.809-0.239,4.118-0.592,5.689-1.004l0.732,1.139l0.321-0.003l-0.233,0.799
		h-0.323l-0.056,0.193l0.008,0.381l0.319,0.378C142.891,82.522,141.708,82.206,139.723,81.949z M142.26,95.249h-0.385l-1.414-1.394
		c1.197,0.134,1.79,0.495,1.793,1.068L142.26,95.249z M138.275,98.2l-0.377,0.003l-0.337-1.079v-0.38h0.325l0.383,0.375
		L138.275,98.2z M136.05,89.888c-0.438,0-0.801-0.608-1.103-1.835l1.089,0.374L136.05,89.888z M138.361,71.038l1.267,0.732
		c-0.249,0.404-0.491,0.8-0.73,1.192l-0.533-1.219L138.361,71.038z M139.939,76.109l0.012-0.015l0.01,0.015H139.939z
		 M142.272,64.062l0.325-0.098v-0.295l-0.645-0.005c-0.359-0.41-0.729-0.639-1.111-0.635v-0.377l0.376,0
		c0.975-0.012,1.466,0.472,1.474,1.443l0.374-0.003l0.32-0.379l0.381-0.001l0.604,0.412c-0.354,0.564-0.712,1.138-1.076,1.72
		c-0.354-0.437-0.681-0.667-0.973-0.667l0.37-0.377C142.555,64.517,142.415,64.277,142.272,64.062z M142.382,73.169l-0.298-0.294
		l0.054-0.024l0.384,0.001l-0.008,0.831l-0.265,0.145l-0.823-0.006l-0.003,0.46l-0.764,0.42l0.012-1.157L142.382,73.169z
		 M144.633,63.704l-0.105,0.001l-0.005-0.7l0.322-0.385l0.335,0.212C145,63.12,144.817,63.41,144.633,63.704z M148.014,70.938
		l-1.091,1.323c-0.188-0.162-0.368-0.282-0.545-0.375l0.876-1.294l0.76,0.006V70.938z M150.14,59.894l-0.711,0.267
		c-0.053-0.096-0.108-0.188-0.188-0.267c0.195-0.178,0.444-0.343,0.726-0.499l0.321,0.266l-0.383,0.004L150.14,59.894z
		 M149.469,65.332l-0.326-0.006l-1.85,0.673l-0.705-0.006l2.571-2.276L149.469,65.332z M149.462,66.018l-0.333,0.973l-0.38-0.004
		v-0.633l0.386-0.339L149.462,66.018z M150.925,66.369l-2.193,2.916l-0.378-0.003l0.004-0.343l2.246-3.257l0.326,0.003
		L150.925,66.369z M150.307,62.579c0.101-0.001,0.173-0.015,0.264-0.021l-0.177,0.105L150.307,62.579z M150.643,56.745l0.015,1.812
		l-0.079,0.024l-0.638,0.004c0.099-0.6,0.209-1.09,0.333-1.466L150.643,56.745z M148.785,54.6l1.465,0.366l-0.445,0.694
		c-0.183,0.245-0.56,0.807-1.083,1.612l-0.302-0.836l0.751-1.084l-0.386-0.376V54.6z M148.386,51.687l0.383,1.077l-0.7,0.759
		l-0.007-1.835L148.386,51.687z M147.693,53.908l0.381-0.006l0.009,0.702l-1.086,0.01L147.693,53.908z M146.23,53.917l0.385,0.323
		l0.008,0.754L146.246,55l-0.39-1.082L146.23,53.917z M142.255,57.188l1.079-0.712l0.006,0.704l-0.328,0.382l0.707-0.006l0.38-0.384
		l0.38,0.376l-0.007-0.756l-0.38-0.32l0.374-0.001l0.319-0.382l0.011,0.7h0.381l-0.006-0.703l1.088,0.69l0.377,0l-0.008-0.7
		l0.381-0.002l0.009,0.702l-0.373,0.379v0.376l0.381-0.002l0.317-0.382l0.381-0.004l0.38,0.374c0.003,0.233,0.038,0.415,0.088,0.572
		c-0.443,0.688-0.952,1.484-1.512,2.367l-0.012-0.011v0.03c-0.14,0.22-0.279,0.438-0.424,0.667
		c-0.435-0.026-0.659-0.374-0.662-1.066l-0.759,0.002l0.375-0.379l-0.704-0.69h-0.387l0.726,2.908l0.004,0.323l-0.321,0.002
		l-2.632-4.295l-0.325,0.004l-0.375,0.324l-0.403-2.534l0.382-0.004l0.382,0.376C141.554,56.833,141.787,57.19,142.255,57.188z
		 M141.061,43.431l0.393,1.076v0.324l-0.378,0.002l-0.382-1.077l-0.006-0.322L141.061,43.431z M138.244,56.141l1.479,2.903
		c0.728-0.004,1.087,0.354,1.095,1.07l0.375-0.379l0.381-0.004l-0.752,1.463l0.013,0.377l0.753-0.006v0.378h-0.375
		c-0.466,0.004-0.715-0.729-0.723-2.202c-0.969,0.007-1.462-0.35-1.471-1.072c-1.229,0.014-1.84-0.218-1.848-0.686v-0.379
		l0.376-0.002l0.331,0.375l0.379-0.001l-1.098-1.45l-0.006-0.377L138.244,56.141z M139.373,61.959L138.3,63.05
		c0,0.466,0.363,0.699,1.086,0.694v0.376l-0.32,0.004l-1.853-0.742l-0.381,0.004l2.972,5.106l-1.857-2.201l-2.903-3.972
		l-0.004-0.326l1.464-0.01v-0.38l-1.144-0.368l0.006,0.376c-0.806-0.963-1.531-1.443-2.179-1.438l-0.007-0.377l1.08-0.332
		l0.006,0.323L139.373,61.959z M130.98,54.738l0.322-0.003c2.934,1.24,4.4,2.073,4.406,2.507l-1.84,0.39
		c-0.006-0.971-0.372-1.454-1.095-1.446l0.011,1.077l0.766,1.072v0.38c-0.505,0.004-0.996-0.714-1.479-2.152V56.19l0.377-0.388
		c-0.976,0.012-1.461-0.215-1.468-0.682V54.738z M130.354,71.105c1.22,0.276,1.845,0.629,1.845,1.063l-0.759,0.003l-1.086-0.745
		V71.105z M129.18,59.83l0.384,0.373v0.381l-1.08-0.373l-0.006-0.372L129.18,59.83z M121.783,48.656l-0.325,0.002l-0.771-1.827
		l-0.006-0.376l1.088,0.744L121.783,48.656z M120.358,46.13l-0.768-0.748l-0.007-0.379h0.387l1.089,1.124L120.358,46.13z
		 M119.643,51.212l-0.389,0.004l-1.461-0.369v-0.376l0.379-0.004l1.467,0.369L119.643,51.212z M119.188,42.144v0.325l-0.318,0.382
		c0.612-0.004,1.101,0.603,1.477,1.824l-1.141,0.011l-1.486-3.281L119.188,42.144z M113.79,51.258l-1.412-0.368v-0.376l1.079-0.336
		l0.004,0.326l0.327,0.376L113.79,51.258z M113.777,49.424l-0.324,0.001l-1.84-0.363l-0.006-0.323l0.381-0.004l1.786,0.31
		L113.777,49.424z M111.602,47.982l0.003,0.38l-0.377,0.38l-1.461,0.009l-0.004-0.378l1.465-0.011v-0.378l-1.084,0.011l-0.073-1.837
		l2.222,0.304l0.062,0.814l-0.763,0.006l-0.379-0.378L111.602,47.982z M112.658,45.06l0.015,1.13l-0.702,0.008l-0.388-0.374
		c-0.003-0.72-0.37-1.079-1.09-1.074v-0.38l1.458-0.008L112.658,45.06z M110.074,39.679c0.978,0.103,1.464,0.456,1.469,1.071
		l0.003,0.324l-2.55-0.684l-0.002-0.379L110.074,39.679z M109.454,50.212l-0.375,0.002l-0.711-0.746l1.073-0.012L109.454,50.212z
		 M107.882,43.005l0.494,0.549l-0.483,1.296l-0.209,0.007l-0.252-1.023L107.882,43.005z M105.489,36.705l0.247,0v0.278l-0.239,1.06
		h-0.241l-0.004-0.273L105.489,36.705z M104.477,39.275l1.627-0.144l-1.33,1.273l-0.233,1.336l-0.239,0.025l-0.026-1.194
		L104.477,39.275z M105.763,40.946l-0.235,1.023h-0.247l-0.217-0.781l0.208-0.004l0.248-0.237L105.763,40.946z M103.579,46.196
		l0.005,0.55l-0.246,0.277l0.7-0.282l0.247-0.002l0.865,0.41l-0.613,0.922l-0.245,0.003l-0.007-1.062h-0.244l-0.392,2.549
		l-0.157-0.852l-0.401-2.512L103.579,46.196z M101.742,41.767l0.734-0.01l0.004,0.511l-0.242,0.279
		c-0.469,0.004-0.698,0.27-0.695,0.793h-0.247l-0.008-1.06L101.742,41.767z M101.186,51.326v0.275l-0.484,0.516l-0.009-0.783
		L101.186,51.326z M98.945,42.577l0.212-0.002l-0.445,1.848h-0.243l-0.219-0.781C98.317,42.932,98.545,42.579,98.945,42.577z
		 M98.188,63.928l0.059-0.354l-0.059-0.139V61.11l0.034,0.017l-0.026-3.591l0.07-0.002v0.058l0.06-0.005l-0.017-0.749l0.203-1.296
		l1.625-0.145l-1.327,1.275l-0.153,0.861l12.534-0.123l1.291-0.384l-6.499-1.221l4.912,0.67l-1.837-1.666l1.139,0.474l0.146-0.149
		l-1.429-0.453l-0.513-0.464l1.408-0.388l1.142,0.694l-0.608,0.611l4.946,1.564v-0.378c-0.719,0.011-1.082-0.223-1.084-0.691
		l-0.383,0.004l-0.325,0.327l-0.369,0.002l-0.714-0.694l1.785-0.772l0.006,1.133c3.089,0.754,5.309,0.574,5.32,1.765l0.539-0.028
		c6.059-0.046,9.114,2.466,9.154,7.535c-0.471,4.618-2.636,6.934-6.495,6.965c0.008,0.722,0.367,1.078,1.095,1.071v0.378
		l-0.375,0.005l-2.183-1.444l-0.702,0.01l-2.215,0.393l-0.378,0.004l-0.329-0.376l-0.379,0.003l-0.376,0.379l-1.466-0.365
		l-0.089,0.033H98.314l-0.046-5.217l-0.08,0.194V63.928z M128.742,89.943v0.702l-1.077,0.012l-0.01-0.704L128.742,89.943z
		 M117.082,87.815l0.384-0.382l-0.011-0.323l-0.378-0.378l-0.006-0.702l1.086-0.386l0.003,0.701l0.376-0.004l0.378-0.322
		l1.082-0.012c0.007,1.3-0.593,2.643-1.812,4.021l-0.381-1.133l0.373-0.005L117.082,87.815z M117.756,83.426l0.003,0.381
		l-0.323,0.376c-1.228-0.165-1.84-0.523-1.85-1.064V82.74L117.756,83.426z M116.944,80.28l0.758-0.008l0.329,0.377
		c-0.01-0.758,0.37-1.136,1.127-1.14l0.713,1.125l0.381-0.004l0.377-0.383l0.004,0.705l-3.686,0.406L116.944,80.28z M119.99,85.628
		l-1.851-1.068v-0.758l0.758-0.008c0.466,0,0.702,0.36,0.711,1.08l0.377-0.33l1.466,0.316v0.379L119.99,85.628z M115.483,79.911
		l-0.058,0.031v-0.408h0.054L115.483,79.911z M98.751,116.757l-0.008-1.137l0.71,0.751l0.004,0.377L98.751,116.757z
		 M101.979,114.134l-1.086-0.699l-0.006-0.38l1.467,1.072L101.979,114.134z M103.478,119.588l-0.702-0.702l-0.006-0.378l1.093,1.074
		L103.478,119.588z M104.625,120.335l-0.013-1.083h0.327l0.391,1.077L104.625,120.335z M106.451,126.113l-0.694,0.759l-0.378,0.007
		v-0.381l0.689-0.707l0.383-0.006V126.113z M107.501,121.394l-0.712-0.696v-0.38l1.093,1.076H107.501z M108.649,123.226l0.011,1.083
		l-0.377,0.003l-0.766-0.754l-0.001-0.325L108.649,123.226z M106.857,129.029l-0.008-1.079l0.699-0.708l1.138-0.006l0.007,1.077
		L106.857,129.029z M114.016,117.717l-0.008-1.461l0.766,0.696L114.016,117.717z M133.264,107.334l-0.385-0.322l-0.303,2.547
		l0.7-0.008c0.008,1.05-0.603,1.775-1.819,2.181l0.392,1.841l-1.453,0.333h-0.384l0.37-1.082V112.5l-1.073,1.414l0.011,1.14
		l0.379-0.007l0.005,0.328l0.324,0.374l-0.698,0.765v0.325l0.383,0.374l0.32-0.001c0.608-1.956,1.088-2.931,1.44-2.936l-0.681,2.552
		l0.384,0.376l0.004,0.378l-0.373,0.329l0.378-0.007l0.706,0.751l0.01,1.084c-1.281-1.216-2.355-1.821-3.258-1.81v0.755l0.327,0.375
		c-0.792,0.004-1.774-0.598-2.936-1.818v0.381c0.013,1.186,0.501,1.782,1.477,1.774l0.007,0.755l-0.322,0.002l-1.148-0.75
		l-1.402,0.015l1.104,2.914l-1.079,0.386v0.38l0.328,0.32l0.003,0.38l-0.323,0.005c-0.676,0.977-1.29,1.469-1.828,1.47
		c0,0.474,0.365,0.704,1.09,0.698l0.004,0.379l-0.38,0.003c-1.297,0.008-2.027-0.582-2.178-1.771l1.086,0.697l-0.021-2.546
		l0.761-0.003l-0.01-1.084l-1.144-0.37l-1.39,1.473l-0.374,0.007l-0.02-1.087l0.385,0.325l0.701-0.71l-0.005-0.381l-0.385-0.322
		l0.759-0.006l-1.101-2.207l0.324-0.382l1.462,0.371l0.378-0.004l0.382-0.382l-0.399-2.164l-0.006-0.378
		c0.979-0.008,1.468,0.474,1.477,1.448l0.371-0.326l0.327-0.002l0.384,0.32c-1.069-2.337-2.175-3.771-3.344-4.304l-23.646,0.188
		l-0.063-8.01l-0.388-0.513v-1.326l0.049-0.001l0.013,1.082h0.323l-0.092-10.93l2.923-0.028l0.367-0.083h2.261l0.294,0.064
		l11.102-0.064v-0.024l3.838-0.033l0.702-0.708l-0.013-0.377l-0.375-0.378l0.375-0.002l-0.003-0.704l0.381-0.004l0.716,1.836
		c3.757,0.511,6.329,1.212,7.704,2.103l0.702-0.004l1.078-1.088l2.561,2.52l0.762-0.005l-0.767-1.077
		c0.566-0.979,1.304-1.471,2.207-1.478l-0.009-0.38c-1.232-0.965-1.85-1.679-1.854-2.149l-0.376,0.004l0.008,1.082l-0.323,0.006
		l-0.013-1.088l-2.235-2.202l0.376-0.004l0.379-0.327l1.083-0.007v0.322l4.027,2.894l0.383-0.006l0.319-0.377l0.765,0.75v0.38
		l-0.754,0.007l-1.086-0.749l0.006,0.758h-0.378l-0.012-0.756l-0.703,0.004c0.596,1.694,1.087,2.538,1.484,2.535
		c-0.781,1.663-1.749,2.647-2.899,2.943l0.38,0.377l-1.824,2.177l0.009,0.755l0.753-0.002l0.021,2.544l0.332,0.32l-0.708,0.008
		l0.003,0.379l1.084-0.013c0.007,1.157,0.248,2.002,0.729,2.54l0.006,1.085L133.264,107.334z M134.392,113.548v-0.378
		c0.434-0.002,0.794,0.608,1.094,1.832l0.007,0.323l-0.328,0.384l0.346,1.455v0.707l-0.324,0.003L134.392,113.548z M135.229,123.72
		l-0.386-1.081l0.381-0.003l0.327,0.374l0.008,0.706L135.229,123.72z M135.918,121.171l-0.012-1.463l0.383-0.004l0.378,1.08
		l0.008,0.38L135.918,121.171z M137.686,112.766l-0.378,0.004l-0.371,0.382l0.38,0.375v0.322l-0.378,0.384h-0.317l-0.384-0.374
		l0.361-1.791l-1.464-0.364l-0.376,0.382l-0.376,0l-0.006-0.378c0-0.397,0.736-0.891,2.209-1.479l1.792,0.366l0.008,0.704
		c-0.727,0.007-1.084,0.26-1.078,0.764v0.381L137.686,112.766z M139.836,110.963l-0.374,0.001c-0.005-0.757-0.241-1.133-0.711-1.128
		l-0.005-0.328l1.074-0.387l0.386,0.378L139.836,110.963z M139.791,104.742l-0.003-0.326c-0.004-0.508-0.495-0.761-1.469-0.749
		c0-0.724-0.368-1.08-1.083-1.075l-0.013-0.702l0.377-0.385l-0.385-0.373v-0.704c0.723-0.006,1.076-0.494,1.065-1.47
		c0.723-0.007,1.087,0.356,1.096,1.074l0.371-0.383l0.758-0.004l0.008,0.379l-0.76,0.004l0.765,1.078l0.004,0.379l-0.377,0.381
		l0.377-0.004l-0.374,0.328l0.395,1.84l0.005,0.702L139.791,104.742z M140.661,119.671v-1.082l0.696-0.763l0.379-0.004l0.706,0.751
		L140.661,119.671z M143.389,101.085l-0.705-0.699l0.369-0.004l0.72,0.701L143.389,101.085z M145.612,102.148l-0.756,0.009
		l-0.325-0.324v-0.377l1.081,0.368V102.148z M146.583,87.585l-0.764-0.7l-0.004-0.38l0.768,0.699V87.585z M151.738,95.931
		l2.191,3.227l0.005,0.761l-0.327,0.001l-2.244-3.607l-0.003-0.38L151.738,95.931z M152.468,99.548l-0.326,0.004l-0.381-0.375
		v-0.704l0.375-0.004L152.468,99.548z M150.233,90.857l0.006,0.322l-0.383,0.004l-1.096-2.159
		C149.263,89.131,149.756,89.741,150.233,90.857z M146.952,86.498l-0.004-0.38l0.704-0.006l0.393,1.079l0.002,0.381L146.952,86.498z
		 M148.062,90.114l2.959,3.985l0.002,0.375l-0.761,0.008l-2.193-3.61L148.062,90.114z M150.303,99.568l1.844,0.746l0.329-0.005
		l-0.311,1.789l-2.567-2.521L150.303,99.568z M151.818,105.781l2.554,1.063v0.7C153.064,107.086,152.218,106.498,151.818,105.781z"
		/>
	<g>
		<polygon points="130.786,104.816 130.786,104.477 129.778,105.431 130.076,105.431 		"/>
		<polygon points="131.767,106.145 130.761,107.527 131.12,108.545 132.145,108.541 		"/>
		<polygon points="129.396,109.581 130.43,110.595 130.774,109.571 130.774,109.214 129.75,109.223 		"/>
		<polygon points="131.142,109.925 131.452,111.3 131.812,111.298 132.519,110.579 132.519,110.222 131.443,109.925 		"/>
		<polygon points="128.755,111.987 128.755,112.343 129.065,112.697 129.771,111.978 129.771,111.618 129.411,111.318 		"/>
		<path d="M125.644,112.012l-2.396,0.376v0.661l1.385,0.708l0.358-0.004l-0.005-1.019l0.306-0.006
			c0.474-0.002,0.716,0.336,0.716,1.013l1.024-0.006l-0.37-1.017C125.987,112.72,125.646,112.488,125.644,112.012z"/>
		<path d="M134.143,125.957l-2.72-1.532l-0.341,0.005l0.012,1.55l0.745-0.003l0.007,0.807h-0.402l-0.345-0.401l-0.402,0.003
			c1.206,2.256,2.502,3.666,3.888,4.228h0.4c-0.541-0.574-0.937-1.988-1.186-4.252L134.143,125.957z"/>
		<path d="M129.18,131.809l0.005,0.804c2.071-0.282,3.106-0.692,3.099-1.23l-1.551-0.333L129.18,131.809z"/>
	</g>
	<g>
		<polygon fill="#FFFFFF" points="116.955,129.97 115.933,131.885 117.018,132.141 117.657,131.184 117.593,127.734 		"/>
		<polyline fill="#FFFFFF" points="110.952,115.537 111.08,114.259 111.845,115.217 111.207,117.644 110.568,118.283 
			109.802,117.133 110.952,115.729 		"/>
		<polygon fill="#FFFFFF" points="116.699,122.817 115.869,123.583 115.869,124.478 116.635,123.583 		"/>
	</g>
</g>
</svg>
