<?xml version="1.0" encoding="utf-8"?>
<!DOCTYPE svg PUBLIC "-//W3C//DTD SVG 1.1//EN" "http://www.w3.org/Graphics/SVG/1.1/DTD/svg11.dtd">
<svg version="1.1" id="Layer_6_copy" xmlns="http://www.w3.org/2000/svg" xmlns:xlink="http://www.w3.org/1999/xlink" x="0px"
	 y="0px" width="216px" height="100px" viewBox="0 0 216 100" enable-background="new 0 0 216 100" xml:space="preserve">
<g transform="translate(-55,-34)">

	<path fill="#ffffff" d="M154.459,106.536l-0.014-1.46l-0.706,0.004l-0.375,0.384l-0.388-1.458l-0.009-0.379l0.377-0.329
		l-1.09-0.747v-0.381l2.178,1.445l0.376-0.001l-1.115-3.998l0.706-0.003l-0.336-1.462l-0.002-0.326l0.318-0.379
		c-0.495-3.462-1.367-6.486-2.61-9.07c-2.122-4.221-5.936-7.346-5.936-7.346c-0.226-0.257-1.318-1.077-1.85-1.269l4.44-5.118
		c-0.002-0.003-0.021-0.004-0.036-0.006c0.14-0.136,0.289-0.29,0.38-0.436c1.242-2.334,2.112-5.064,2.611-8.188l-0.32-0.342
		l0.006-0.294l0.333-1.32l-0.705-0.002l0.888-2.874l0.262-0.002c-0.023-3.453-1.026-7.547-3.015-12.283l-0.324,0.323l-0.373,0.006
		l-0.009-0.326l0.379-0.381c-0.002-0.501-0.384-0.753-1.144-0.748c-0.004-1.295-0.377-2.133-1.096-2.531l-0.33-0.316l0.005,1.076
		l-0.382,0.004v-0.754l-2.163,0.772l0.009,0.38l0.322,0.32l-0.322,0.004l-1.146-0.694l0.755-0.76v-0.327l-0.387-0.377l1.083-0.009
		l0.012,1.081l0.379-0.002l1.459-0.714l-0.004-0.755l-0.764,0.007l-0.325,0.38c-0.015-1.869-1.248-3.194-3.707-3.966
		c-1.316-1.934-5.333-3.593-12.058-4.981l0.003,0.327l-1.788-0.311h-0.38l-0.375,0.329l-0.328-0.32
		c0.005,1.042,1.855,4.177,5.544,9.405c0.142,0.429,0.312,0.84,0.505,1.236l-0.005,0.547l0.321,0.002
		c0.538,0.932,1.215,1.776,2.077,2.512l1.459-0.016l-0.329-1.076v-0.375l0.324-0.004l1.472,1.122l0.377-0.003l-0.365,1.084v0.377
		l0.38,0.325l-1.826,1.845c0.976-0.005,1.459,0.349,1.468,1.071l-0.374,0.003l-0.334-0.378l0.011,1.134l0.704-0.004l0.001,0.326
		l-0.703,0.004l-0.381-0.321v0.327c-1.233-0.642-1.848-1.229-1.855-1.774l-0.322,0.008l0.008,0.7l-1.145-0.693l0.376-0.38
		l-0.711-1.078v-0.376l0.703-0.004c-0.009-0.756-2.092-4.25-6.259-10.477c-1.829-3.622-2.943-5.436-3.345-5.43l-18.081,0.143v-0.008
		l-0.275,0.001l-0.002,0.01l-4.635,0.034l0.237,1.631l-2.128,1.078l0.129-2.691h0.212l0.245,0.23c0-0.082,0.018-0.162,0.046-0.238
		l-0.415,0.003l-23.717,0.189h-1.78v2.638c-0.005,0.098-0.033,0.185-0.03,0.29l0.011,1.458l0.02,0.022v1.762h-0.009l0.007,0.754
		h0.002v28.377H55.344v21.05H73.44v40.53h5.42v0.061l0.062-0.061h1.026l0.054,0.05l2.544-0.022l0.024-0.027h0.652l0.025,0.021
		l0.565-0.005v0.036l1.913-0.017h11.161v-0.175l0.29-0.294l0.326,0.378l2.547-0.021c0.355-0.002,0.713-0.494,1.067-1.473
		c-0.728-0.781-1.093-1.631-1.104-2.531l-0.318,0.382h-0.377l-0.387-0.373l-0.701,0.007l0.01,1.08l-1.354-1.289v-1.24l0.245-0.001
		l-0.245-0.229v-4.028c0.309,0.411,0.737,0.623,1.301,0.619c0.007,0.726,0.376,1.08,1.091,1.074l0.007,0.705l0.702-0.006
		l0.003,0.753l-1.073,0.392l0.774,1.778l0.698-0.006l0.379-0.326v0.326l-0.376,0.378l1.85,1.068c-0.005-0.973,0.477-1.467,1.45-1.47
		l-0.004-0.705l-0.383-0.378l0.697-0.008l0.387,0.379c-1.036,1.126-1.743,2.828-2.123,5.105l2.868-0.023l0.373-0.383l0.384,0.373
		l16.018-0.12l1.84-0.396l-0.38-0.324l0.685-1.843l0.386,0.376l0.697-0.768l-0.008-0.7l-0.706,0.005v-0.377l0.377-0.383l1.788,0.361
		v0.383l-1.078,0.004l0.017,1.791l0.379,0.375l-0.756,0.006l0.761,0.754l1.838-0.016c0-0.758,0.351-1.139,1.075-1.147l-0.004-0.705
		l-0.372,0.008l-0.382,0.378c-0.009-0.904-0.501-1.745-1.485-2.529l2.233,1.061h0.324l-0.714-1.078l-0.004-0.377l0.377-0.002
		l1.085,0.693l0.388-0.003l-0.003-0.321c-0.005-0.615-0.499-0.988-1.475-1.123l-0.006-1.086c0.613-0.002,0.967-0.496,1.072-1.474
		l-0.76,0.013l0.368-1.469l2.556,1.441l0.379-0.002l-0.009-0.326l-3.331-3.976l-0.002-0.382l0.758-0.007l1.084,0.694
		c1.229-0.009,1.852,0.598,1.858,1.828l0.006,0.376l-0.377,0.329c0.979,0.497,1.47,1.105,1.473,1.828h0.382l-0.007-0.706
		l0.323-0.005l0.39,0.326l-0.379,0.385l0.769,1.828l-0.758,0.007c-0.005-0.974-0.371-1.458-1.092-1.452v0.324l0.775,2.217
		l-0.371,1.084l1.479,1.445c1.512-0.084,4.526-1.566,9.051-4.453c5.771-5.603,8.64-10.115,8.605-13.546l-0.003-0.705
		c-0.716,0.007-1.084-0.241-1.084-0.746l-0.004-0.327l0.756-0.005l0.332,1.078c0.507,0,0.88-0.98,1.115-2.929l-0.761-0.699
		l-0.384,0.004l0.021,2.165c-0.468,0.002-0.839-0.968-1.111-2.913l1.09,0.37L154.459,106.536z M136.406,38.461l-0.374,0.332
		l-0.708-0.699l1.082-0.008V38.461z M144.528,89.892l0.01,1.083l-0.382,0.004l-1.465-0.75l-0.02-1.782l-0.71-1.077l0.701-0.007
		l0.769,0.695l0.014,1.843L144.528,89.892z M138.723,80.949h-1.068l-1.583,0.62v0.38l0.379,0.322
		c-0.507,0.004-0.751,0.384-0.749,1.144l-0.32,0.001l-0.378-0.377l-0.759,0.006c1.487,1.326,2.234,2.524,2.243,3.608l0.003,0.379
		l-0.373,0.387c-1.09-0.427-2.069-1.264-2.946-2.524l1.087-0.008l-0.711-1.13l-1.073,1.142l1.091,1.4l-0.755,0.006
		c-1.273-0.82-2.129-1.769-2.571-2.852h0.38L131,83.774l0.382-0.002l-0.005-0.326l-0.764-1.13v-0.326l0.754-0.005l-0.009-0.378
		l-0.378-0.373v-0.196h0.298v-0.42l0.697-0.761c0.346-0.003,0.649,0.397,0.907,1.181h1.215l0.101-0.065l0.326,0l0.081,0.066h0.39
		l0.281-0.831c0.181-0.06,0.345-0.123,0.505-0.188c1.809-0.239,4.118-0.592,5.689-1.004l0.732,1.139l0.321-0.003l-0.233,0.799
		h-0.323l-0.056,0.193l0.008,0.381l0.319,0.378C141.891,81.522,140.708,81.206,138.723,80.949z M141.26,94.249h-0.385l-1.414-1.394
		c1.197,0.134,1.79,0.495,1.793,1.068L141.26,94.249z M137.275,97.2l-0.377,0.003l-0.337-1.079v-0.38h0.325l0.383,0.375
		L137.275,97.2z M135.05,88.888c-0.438,0-0.801-0.608-1.103-1.835l1.089,0.374L135.05,88.888z M137.361,70.038l1.267,0.732
		c-0.249,0.404-0.491,0.8-0.73,1.192l-0.533-1.219L137.361,70.038z M138.939,75.109l0.012-0.015l0.01,0.015H138.939z
		 M141.272,63.062l0.325-0.098v-0.295l-0.645-0.005c-0.359-0.41-0.729-0.639-1.111-0.635v-0.377l0.376,0
		c0.975-0.012,1.466,0.472,1.474,1.443l0.374-0.003l0.32-0.379l0.381-0.001l0.604,0.412c-0.354,0.564-0.712,1.138-1.076,1.72
		c-0.354-0.437-0.681-0.667-0.973-0.667l0.37-0.377C141.555,63.517,141.415,63.277,141.272,63.062z M141.382,72.169l-0.298-0.294
		l0.054-0.024l0.384,0.001l-0.008,0.831l-0.265,0.145l-0.823-0.006l-0.003,0.46l-0.764,0.42l0.012-1.157L141.382,72.169z
		 M143.633,62.704l-0.105,0.001l-0.005-0.7l0.322-0.385l0.335,0.212C144,62.12,143.817,62.41,143.633,62.704z M147.014,69.938
		l-1.091,1.323c-0.188-0.162-0.368-0.282-0.545-0.375l0.876-1.294l0.76,0.006V69.938z M149.14,58.894l-0.711,0.267
		c-0.053-0.096-0.108-0.188-0.188-0.267c0.195-0.178,0.444-0.343,0.726-0.499l0.321,0.266l-0.383,0.004L149.14,58.894z
		 M148.469,64.332l-0.326-0.006l-1.85,0.673l-0.705-0.006l2.571-2.276L148.469,64.332z M148.462,65.018l-0.333,0.973l-0.38-0.004
		v-0.633l0.386-0.339L148.462,65.018z M149.925,65.369l-2.193,2.916l-0.378-0.003l0.004-0.343l2.246-3.257l0.326,0.003
		L149.925,65.369z M149.307,61.579c0.101-0.001,0.173-0.015,0.264-0.021l-0.177,0.105L149.307,61.579z M149.643,55.745l0.015,1.812
		l-0.079,0.024l-0.638,0.004c0.099-0.6,0.209-1.09,0.333-1.466L149.643,55.745z M147.785,53.6l1.465,0.366l-0.445,0.694
		c-0.183,0.245-0.56,0.807-1.083,1.612l-0.302-0.836l0.751-1.084l-0.386-0.376V53.6z M147.386,50.687l0.383,1.077l-0.7,0.759
		l-0.007-1.835L147.386,50.687z M146.693,52.908l0.381-0.006l0.009,0.702l-1.086,0.01L146.693,52.908z M145.23,52.917l0.385,0.323
		l0.008,0.754L145.246,54l-0.39-1.082L145.23,52.917z M141.255,56.188l1.079-0.712l0.006,0.704l-0.328,0.382l0.707-0.006l0.38-0.384
		l0.38,0.376l-0.007-0.756l-0.38-0.32l0.374-0.001l0.319-0.382l0.011,0.7h0.381l-0.006-0.703l1.088,0.69l0.377,0l-0.008-0.7
		l0.381-0.002l0.009,0.702l-0.373,0.379v0.376l0.381-0.002l0.317-0.382l0.381-0.004l0.38,0.374c0.003,0.233,0.038,0.415,0.088,0.572
		c-0.443,0.688-0.952,1.484-1.512,2.367l-0.012-0.011v0.03c-0.14,0.22-0.279,0.438-0.424,0.667
		c-0.435-0.026-0.659-0.374-0.662-1.066l-0.759,0.002l0.375-0.379l-0.704-0.69h-0.387l0.726,2.908l0.004,0.323l-0.321,0.002
		l-2.632-4.295l-0.325,0.004l-0.375,0.324l-0.403-2.534l0.382-0.004l0.382,0.376C140.554,55.833,140.787,56.19,141.255,56.188z
		 M140.061,42.431l0.393,1.076v0.324l-0.378,0.002l-0.382-1.077l-0.006-0.322L140.061,42.431z M137.244,55.141l1.479,2.903
		c0.728-0.004,1.087,0.354,1.095,1.07l0.375-0.379l0.381-0.004l-0.752,1.463l0.013,0.377l0.753-0.006v0.378h-0.375
		c-0.466,0.004-0.715-0.729-0.723-2.202c-0.969,0.007-1.462-0.35-1.471-1.072c-1.229,0.014-1.84-0.218-1.848-0.686v-0.379
		l0.376-0.002l0.331,0.375l0.379-0.001l-1.098-1.45l-0.006-0.377L137.244,55.141z M138.373,60.959L137.3,62.05
		c0,0.466,0.363,0.699,1.086,0.694v0.376l-0.32,0.004l-1.853-0.742l-0.381,0.004l2.972,5.106l-1.857-2.201l-2.903-3.972
		l-0.004-0.326l1.464-0.01v-0.38l-1.144-0.368l0.006,0.376c-0.806-0.963-1.531-1.443-2.179-1.438l-0.007-0.377l1.08-0.332
		l0.006,0.323L138.373,60.959z M129.98,53.738l0.322-0.003c2.934,1.24,4.4,2.073,4.406,2.507l-1.84,0.39
		c-0.006-0.971-0.372-1.454-1.095-1.446l0.011,1.077l0.766,1.072v0.38c-0.505,0.004-0.996-0.714-1.479-2.152V55.19l0.377-0.388
		c-0.976,0.012-1.461-0.215-1.468-0.682V53.738z M129.354,70.105c1.22,0.276,1.845,0.629,1.845,1.063l-0.759,0.003l-1.086-0.745
		V70.105z M128.18,58.83l0.384,0.373v0.381l-1.08-0.373l-0.006-0.372L128.18,58.83z M120.783,47.656l-0.325,0.002l-0.771-1.827
		l-0.006-0.376l1.088,0.744L120.783,47.656z M119.358,45.13l-0.768-0.748l-0.007-0.379h0.387l1.089,1.124L119.358,45.13z
		 M118.643,50.212l-0.389,0.004l-1.461-0.369v-0.376l0.379-0.004l1.467,0.369L118.643,50.212z M118.188,41.144v0.325l-0.318,0.382
		c0.612-0.004,1.101,0.603,1.477,1.824l-1.141,0.011l-1.486-3.281L118.188,41.144z M112.79,50.258l-1.412-0.368v-0.376l1.079-0.336
		l0.004,0.326l0.327,0.376L112.79,50.258z M112.777,48.424l-0.324,0.001l-1.84-0.363l-0.006-0.323l0.381-0.004l1.786,0.31
		L112.777,48.424z M110.602,46.982l0.003,0.38l-0.377,0.38l-1.461,0.009l-0.004-0.378l1.465-0.011v-0.378l-1.084,0.011l-0.073-1.837
		l2.222,0.304l0.062,0.814l-0.763,0.006l-0.379-0.378L110.602,46.982z M111.658,44.06l0.015,1.13l-0.702,0.008l-0.388-0.374
		c-0.003-0.72-0.37-1.079-1.09-1.074v-0.38l1.458-0.008L111.658,44.06z M109.074,38.679c0.978,0.103,1.464,0.456,1.469,1.071
		l0.003,0.324l-2.55-0.684l-0.002-0.379L109.074,38.679z M108.454,49.212l-0.375,0.002l-0.711-0.746l1.073-0.012L108.454,49.212z
		 M106.882,42.005l0.494,0.549l-0.483,1.296l-0.209,0.007l-0.252-1.023L106.882,42.005z M104.489,35.705l0.247,0v0.278l-0.239,1.06
		h-0.241l-0.004-0.273L104.489,35.705z M103.477,38.275l1.627-0.144l-1.33,1.273l-0.233,1.336l-0.239,0.025l-0.026-1.194
		L103.477,38.275z M104.763,39.946l-0.235,1.023h-0.247l-0.217-0.781l0.208-0.004l0.248-0.237L104.763,39.946z M102.584,45.746
		l-0.246,0.277l0.7-0.282l0.247-0.002l0.865,0.41l-0.613,0.922l-0.245,0.003l-0.007-1.062h-0.244l-0.392,2.549l-0.157-0.852
		l-0.401-2.512 M100.742,40.767l0.734-0.01l0.004,0.511l-0.242,0.279c-0.469,0.004-0.698,0.27-0.695,0.793h-0.247l-0.008-1.06
		L100.742,40.767z M100.186,50.326v0.275l-0.484,0.516l-0.009-0.783L100.186,50.326z M97.945,41.577l0.212-0.002l-0.445,1.848
		h-0.243l-0.219-0.781C97.317,41.932,97.545,41.579,97.945,41.577z M97.188,62.928l0.059-0.354l-0.059-0.139V60.11l0.034,0.017
		l-0.026-3.591l0.07-0.002v0.058l0.06-0.005l-0.017-0.749l0.203-1.296l1.625-0.145l-1.327,1.275l-0.153,0.861l12.534-0.123
		l1.291-0.384l-6.499-1.221l4.912,0.67l-1.837-1.666l1.139,0.474l0.146-0.149l-1.429-0.453l-0.513-0.464l1.408-0.388l1.142,0.694
		l-0.608,0.611l4.946,1.564v-0.378c-0.719,0.011-1.082-0.223-1.084-0.691l-0.383,0.004l-0.325,0.327l-0.369,0.002l-0.714-0.694
		l1.785-0.772l0.006,1.133c3.089,0.754,5.309,0.574,5.32,1.765l0.539-0.028c6.059-0.046,9.114,2.466,9.154,7.535
		c-0.471,4.618-2.636,6.934-6.495,6.965c0.008,0.722,0.367,1.078,1.095,1.071v0.378l-0.375,0.005l-2.183-1.444l-0.702,0.01
		l-2.215,0.393l-0.378,0.004l-0.329-0.376l-0.379,0.003l-0.376,0.379l-1.466-0.365l-0.089,0.033H97.314l-0.046-5.217l-0.08,0.194
		V62.928z M127.742,88.943v0.702l-1.077,0.012l-0.01-0.704L127.742,88.943z M116.082,86.815l0.384-0.382l-0.011-0.323l-0.378-0.378
		l-0.006-0.702l1.086-0.386l0.003,0.701l0.376-0.004l0.378-0.322l1.082-0.012c0.007,1.3-0.593,2.643-1.812,4.021l-0.381-1.133
		l0.373-0.005L116.082,86.815z M116.756,82.426l0.003,0.381l-0.323,0.376c-1.228-0.165-1.84-0.523-1.85-1.064V81.74L116.756,82.426z
		 M115.944,79.28l0.758-0.008l0.329,0.377c-0.01-0.758,0.37-1.136,1.127-1.14l0.713,1.125l0.381-0.004l0.377-0.383l0.004,0.705
		l-3.686,0.406L115.944,79.28z M118.99,84.628l-1.851-1.068v-0.758l0.758-0.008c0.466,0,0.702,0.36,0.711,1.08l0.377-0.33
		l1.466,0.316v0.379L118.99,84.628z M114.483,78.911l-0.058,0.031v-0.408h0.054L114.483,78.911z M97.751,115.758l-0.008-1.138
		l0.71,0.751l0.004,0.378L97.751,115.758z M100.979,113.134l-1.086-0.699l-0.006-0.38l1.467,1.072L100.979,113.134z
		 M102.478,118.588l-0.702-0.701l-0.006-0.378l1.093,1.073L102.478,118.588z M103.625,119.336l-0.013-1.084h0.327l0.391,1.077
		L103.625,119.336z M105.451,125.113l-0.694,0.759l-0.378,0.007v-0.381l0.689-0.707l0.383-0.006V125.113z M106.501,120.394
		l-0.712-0.696v-0.38l1.093,1.076H106.501z M107.649,122.227l0.011,1.082l-0.377,0.004l-0.766-0.754l-0.001-0.325L107.649,122.227z
		 M105.857,128.029l-0.008-1.079l0.699-0.708l1.138-0.007l0.007,1.077L105.857,128.029z M113.016,116.717l-0.008-1.461l0.766,0.696
		L113.016,116.717z M132.264,106.334l-0.385-0.322l-0.303,2.547l0.7-0.008c0.008,1.05-0.603,1.775-1.819,2.181l0.392,1.841
		l-1.453,0.333h-0.384l0.37-1.082V111.5l-1.073,1.414l0.011,1.141l0.379-0.008l0.005,0.328l0.324,0.373l-0.698,0.766v0.324
		l0.383,0.374l0.32-0.001c0.608-1.955,1.088-2.931,1.44-2.936l-0.681,2.552l0.384,0.376l0.004,0.379l-0.373,0.328l0.378-0.007
		l0.706,0.751l0.01,1.085c-1.281-1.216-2.355-1.821-3.258-1.81v0.756l0.327,0.374c-0.792,0.005-1.774-0.599-2.936-1.818v0.381
		c0.013,1.186,0.501,1.782,1.477,1.774l0.007,0.755l-0.322,0.003l-1.148-0.75l-1.402,0.016l1.104,2.913l-1.079,0.386v0.381
		l0.328,0.32l0.003,0.379l-0.323,0.006c-0.676,0.977-1.29,1.469-1.828,1.469c0,0.475,0.365,0.704,1.09,0.699l0.004,0.379
		l-0.38,0.002c-1.297,0.009-2.027-0.582-2.178-1.77l1.086,0.697l-0.021-2.547l0.761-0.003l-0.01-1.084l-1.144-0.37l-1.39,1.474
		l-0.374,0.007l-0.02-1.088l0.385,0.325l0.701-0.71l-0.005-0.382l-0.385-0.322l0.759-0.007l-1.101-2.207l0.324-0.381l1.462,0.37
		l0.378-0.005l0.382-0.382l-0.399-2.163l-0.006-0.379c0.979-0.008,1.468,0.475,1.477,1.448l0.371-0.325l0.327-0.003l0.384,0.32
		c-1.069-2.337-2.175-3.771-3.344-4.304l-23.646,0.188l-0.063-8.01l-0.388-0.513v-1.326l0.049-0.001l0.013,1.082h0.323l-0.092-10.93
		l2.923-0.028l0.367-0.083h2.261l0.294,0.064l11.102-0.064v-0.024l3.838-0.033l0.702-0.708l-0.013-0.377l-0.375-0.378l0.375-0.002
		l-0.003-0.704l0.381-0.004l0.716,1.836c3.757,0.511,6.329,1.212,7.704,2.103l0.702-0.004l1.078-1.088l2.561,2.52l0.762-0.005
		l-0.767-1.077c0.566-0.979,1.304-1.471,2.207-1.478l-0.009-0.38c-1.232-0.965-1.85-1.679-1.854-2.149l-0.376,0.004l0.008,1.082
		l-0.323,0.006l-0.013-1.088l-2.235-2.202l0.376-0.004l0.379-0.327l1.083-0.007v0.322l4.027,2.894l0.383-0.006l0.319-0.377
		l0.765,0.75v0.38l-0.754,0.007l-1.086-0.749l0.006,0.758h-0.378l-0.012-0.756l-0.703,0.004c0.596,1.694,1.087,2.538,1.484,2.535
		c-0.781,1.663-1.749,2.647-2.899,2.943l0.38,0.377l-1.824,2.177l0.009,0.755l0.753-0.002l0.021,2.544l0.332,0.32l-0.708,0.008
		l0.003,0.379l1.084-0.013c0.007,1.157,0.248,2.002,0.729,2.54l0.006,1.085L132.264,106.334z M133.392,112.548v-0.378
		c0.434-0.002,0.794,0.608,1.094,1.832l0.007,0.322l-0.328,0.385l0.346,1.455v0.707l-0.324,0.003L133.392,112.548z M134.229,122.72
		l-0.386-1.081l0.381-0.004l0.327,0.375l0.008,0.705L134.229,122.72z M134.918,120.171l-0.012-1.464l0.383-0.004l0.378,1.08
		l0.008,0.38L134.918,120.171z M136.686,111.766l-0.378,0.004l-0.371,0.382l0.38,0.375v0.322l-0.378,0.384h-0.317l-0.384-0.374
		l0.361-1.791l-1.464-0.364l-0.376,0.382l-0.376,0l-0.006-0.378c0-0.397,0.736-0.891,2.209-1.479l1.792,0.366l0.008,0.704
		c-0.727,0.007-1.084,0.26-1.078,0.764v0.381L136.686,111.766z M138.836,109.963l-0.374,0.001c-0.005-0.757-0.241-1.133-0.711-1.128
		l-0.005-0.328l1.074-0.387l0.386,0.378L138.836,109.963z M138.791,103.742l-0.003-0.326c-0.004-0.508-0.495-0.761-1.469-0.749
		c0-0.724-0.368-1.08-1.083-1.075l-0.013-0.702l0.377-0.385l-0.385-0.373v-0.704c0.723-0.006,1.076-0.494,1.065-1.47
		c0.723-0.007,1.087,0.356,1.096,1.074l0.371-0.383l0.758-0.004l0.008,0.379l-0.76,0.004l0.765,1.078l0.004,0.379l-0.377,0.381
		l0.377-0.004l-0.374,0.328l0.395,1.84l0.005,0.702L138.791,103.742z M139.661,118.671v-1.082l0.696-0.763l0.379-0.004l0.706,0.75
		L139.661,118.671z M142.389,100.085l-0.705-0.699l0.369-0.004l0.72,0.701L142.389,100.085z M144.612,101.148l-0.756,0.009
		l-0.325-0.324v-0.377l1.081,0.368V101.148z M145.583,86.585l-0.764-0.7l-0.004-0.38l0.768,0.699V86.585z M150.738,94.931
		l2.191,3.227l0.005,0.761l-0.327,0.001l-2.244-3.607l-0.003-0.38L150.738,94.931z M151.468,98.548l-0.326,0.004l-0.381-0.375
		v-0.704l0.375-0.004L151.468,98.548z M149.233,89.857l0.006,0.322l-0.383,0.004l-1.096-2.159
		C148.263,88.131,148.756,88.741,149.233,89.857z M145.952,85.498l-0.004-0.38l0.704-0.006l0.393,1.079l0.002,0.381L145.952,85.498z
		 M147.062,89.114l2.959,3.985l0.002,0.375l-0.761,0.008l-2.193-3.61L147.062,89.114z M149.303,98.568l1.844,0.746l0.329-0.005
		l-0.311,1.789l-2.567-2.521L149.303,98.568z M150.818,104.781l2.554,1.063v0.7C152.064,106.086,151.218,105.498,150.818,104.781z"
		/>
	<g>
		<polygon fill="#ffffff" points="129.786,103.816 129.786,103.477 128.778,104.431 129.076,104.431 		"/>
		<polygon fill="#ffffff" points="130.767,105.145 129.761,106.527 130.12,107.545 131.145,107.541 		"/>
		<polygon fill="#ffffff" points="128.396,108.581 129.43,109.595 129.774,108.571 129.774,108.214 128.75,108.223 		"/>
		<polygon fill="#ffffff" points="130.142,108.925 130.452,110.3 130.812,110.298 131.519,109.579 131.519,109.222 130.443,108.925 
					"/>
		<polygon fill="#ffffff" points="127.755,110.987 127.755,111.343 128.065,111.697 128.771,110.978 128.771,110.618 
			128.411,110.318 		"/>
		<path fill="#ffffff" d="M124.644,111.012l-2.396,0.376v0.661l1.385,0.708l0.358-0.004l-0.005-1.019l0.306-0.006
			c0.474-0.002,0.716,0.336,0.716,1.013l1.024-0.006l-0.37-1.017C124.987,111.72,124.646,111.488,124.644,111.012z"/>
		<path fill="#ffffff" d="M133.143,124.957l-2.72-1.531l-0.341,0.004l0.012,1.551l0.745-0.003l0.007,0.808h-0.402l-0.345-0.402
			l-0.402,0.004c1.206,2.256,2.502,3.666,3.888,4.228h0.4c-0.541-0.574-0.937-1.987-1.186-4.253L133.143,124.957z"/>
		<path fill="#ffffff" d="M128.18,130.809l0.005,0.805c2.071-0.283,3.106-0.692,3.099-1.23l-1.551-0.334L128.18,130.809z"/>
	</g>
</g>
</svg>
